<svg width="646" height="473" viewBox="0 0 646 473" fill="none" xmlns="http://www.w3.org/2000/svg">
<g clip-path="url(#clip0_24_254)">
<mask id="mask0_24_254" style="mask-type:luminance" maskUnits="userSpaceOnUse" x="0" y="0" width="608" height="473">
<path d="M608 0H0V473H608V0Z" fill="white"/>
</mask>
<g mask="url(#mask0_24_254)">
<path d="M401.933 131.916C378.392 139.875 377.45 164.805 377.45 185.53C377.45 193.759 379.837 206.852 372.72 212.844C364.545 219.727 342.973 218.157 338.395 207.837C334.996 200.178 338.311 191.571 335.996 183.793C334.319 178.163 327.924 176.407 323.593 180.653C318.621 185.526 320.322 195.573 320.322 201.841C320.32 219.509 320.202 237.181 320.324 254.849C320.369 261.394 320.437 273.414 330.26 272.248C340.794 270.998 335.804 249.664 336.946 242.698C339.062 229.801 354.664 229.018 365.198 230.685C380.851 233.165 376.548 249.463 377.57 260.955C378.125 267.206 381.761 274.452 389.398 271.849C398.785 268.65 395.812 252.186 395.812 244.655V191.647C395.812 182.605 394.286 171.892 396.698 163.103C399.536 152.751 409.5 145.082 420.295 147.913C426.161 149.451 433.914 155.36 439.427 149.631C444.448 144.416 439.278 137.721 434.457 134.845C425.929 129.757 411.273 128.758 401.933 131.916ZM261.154 301.741C258.902 288.479 248.466 292.249 238.712 287.168C221.649 278.279 208.605 265.457 189.745 259.636C182.364 257.359 167.913 259.102 163.278 252.162C160.08 247.373 161.184 239.905 161.181 234.461V197.763C161.167 191.053 162.232 179.341 152.94 178.325C142.971 177.235 142.867 188.944 142.821 195.724C142.699 213.39 142.789 231.065 142.819 248.733C142.831 255.732 141.898 264.817 147.784 269.93C154.651 275.892 168.919 273.125 177.503 274.846C193.961 278.142 211.825 288.775 222.389 301.741C212.292 301.741 201.76 302.588 191.785 300.793C162.398 295.509 143.366 274.992 131.209 248.733C123.218 231.474 118.23 213.519 111.769 195.724C109.347 189.053 106.408 179.212 97.9834 178.325C89.636 177.447 86.4838 187.503 84.3768 193.685C78.1403 211.986 70.4475 230.233 65.01 248.733C63.329 254.452 57.5473 268.635 65.9293 271.849C74.1788 275.011 79.0817 263.981 84.0777 259.81C90.3499 254.572 100.5 253.375 108.103 256.362C120.137 261.092 125.7 277.991 133.565 287.462C147.045 303.693 168.424 316.305 189.745 317.868C200.289 318.641 211.902 318.841 222.389 317.463C229.775 316.492 237.353 312.873 244.832 313.418C252.534 313.976 259.669 318.16 267.275 319.426C279.723 321.499 295.67 321.375 308.081 319.143C315.652 317.783 347.276 309.701 338.589 296.765C334.688 290.954 327.733 292.701 322.363 294.85C311.202 299.317 300.046 305.242 287.678 305.12C278.782 305.03 270.162 301.929 261.154 301.741ZM246.873 178.46C217.111 185.546 203.09 222.604 217.407 248.733C228.508 268.992 251.331 277.217 273.396 272.12C302.694 265.351 317.992 227.947 303.431 201.841C292.377 182.019 268.612 173.285 246.873 178.46ZM563.114 318.052V301.741C546.933 301.741 530.76 300.726 516.188 292.736C496.157 281.755 483.45 259.049 475.303 238.508C469.156 223.015 464.453 207.115 458.193 191.648C455.884 185.942 452.642 177.471 444.962 178.325C437.172 179.191 435.273 189.755 433.208 195.724C427.075 213.464 420.226 230.946 414.168 248.733C412.367 254.023 406.352 264.293 410.239 269.645C413.348 273.926 419.867 272.713 423.448 269.924C434.241 261.51 440.865 250.025 456.99 256.362C470.923 261.838 477.196 283.172 487.706 293.403C509.877 314.983 533.632 318.052 563.114 318.052Z" fill="#272A57"/>
<path d="M250.953 195.118C211.578 208.414 232.489 269.005 271.348 254.578C307.993 240.973 287.976 182.617 250.953 195.118ZM444.779 214.073C443.222 218.748 440.778 223.486 439.876 228.339C438.519 235.646 446.533 245.766 452.797 237.024C457.459 230.516 448.978 218.722 444.779 214.073ZM95.8928 216.112C93.4751 221.572 88.9988 229.739 91.4769 235.85C93.9839 242.031 102.797 240.046 104.199 234.16C105.531 228.567 101.674 221.338 99.9734 216.112H95.8928Z" fill="white"/>
</g>
<path d="M266 159.149L284.066 132H304V133.851L296.836 142.181L288.115 151.745L277.525 161H266V159.149Z" fill="#FFD300"/>
</g>
<path d="M479.667 186.333C481.444 183.889 483.778 181.444 486.667 179H496.333V167.333C500.556 163.556 504.556 159.556 508.333 155.333C512.333 151.111 516 147.333 519.333 144C520.667 143.111 521.889 142.778 523 143C524.111 143 524.778 143.333 525 144V179H550C550.889 179 551.333 180.111 551.333 182.333C551.333 184.333 549.667 186.667 546.333 189.333H525V243.667C525 254.778 529 260.333 537 260.333C539.444 260.333 541.889 259.667 544.333 258.333C546.778 256.778 548.222 255.778 548.667 255.333C549.556 256.222 550 257 550 257.667C550 259.667 549.556 261.111 548.667 262C548 262.889 546.889 264 545.333 265.333C544 266.667 542.333 268 540.333 269.333C534.556 272.889 529.667 274.667 525.667 274.667C521.889 274.667 518.222 274.111 514.667 273C511.333 272.111 508.333 270.333 505.667 267.667C499.444 262.111 496.333 253.667 496.333 242.333V189.333H480.667C480 188.889 479.667 187.889 479.667 186.333ZM585.378 211C585.823 211 587.267 211 589.712 211C592.378 210.778 595.267 210.556 598.378 210.333C605.489 210.111 610.6 209.778 613.712 209.333C615.712 209.111 616.712 207.889 616.712 205.667C616.712 203.222 616.489 200.667 616.045 198C615.6 195.333 614.823 193 613.712 191C611.267 186.111 608.045 183.667 604.045 183.667C600.267 183.667 597.267 184.778 595.045 187C592.823 189 590.934 191.444 589.378 194.333C586.712 200.111 585.378 205.667 585.378 211ZM638.045 217C624.712 218.111 607.156 219 585.378 219.667C585.378 233.222 589.156 243.222 596.712 249.667C602.489 254.333 608.712 256.667 615.378 256.667C622.267 256.667 627.6 255.444 631.378 253C635.156 250.556 638.267 248.111 640.712 245.667C642.489 246.111 643.378 247.333 643.378 249.333C643.378 251.333 642.934 253 642.045 254.333C641.378 255.444 639.934 257.222 637.712 259.667C635.489 261.889 632.712 264.111 629.378 266.333C620.934 272.111 612.823 275 605.045 275C597.267 275 590.6 274 585.045 272C579.489 269.778 574.6 266.667 570.378 262.667C561.267 254 556.712 242.778 556.712 229C556.712 214.778 561.6 202.333 571.378 191.667C581.823 180.333 593.156 174.667 605.378 174.667C618.489 174.667 628.489 178.556 635.378 186.333C641.156 192.556 644.045 199.778 644.045 208C644.045 210.444 643.489 212.556 642.378 214.333C641.267 216.111 639.823 217 638.045 217Z" fill="#FFD300"/>
<defs>
<clipPath id="clip0_24_254">
<rect width="608" height="473" fill="white"/>
</clipPath>
</defs>
</svg>
