<svg width="245" height="55" viewBox="0 0 245 55" fill="none" xmlns="http://www.w3.org/2000/svg">
<g clip-path="url(#clip0_11_2)">
<path d="M114.208 37.7088C112.048 37.7088 109.651 37.8406 107.017 38.1042C106.912 37.9461 106.859 37.6296 106.859 37.155C106.859 36.6804 106.912 36.3376 107.017 36.1267C108.123 36.1267 108.94 36.0212 109.467 35.8104C109.994 35.5466 110.31 35.3358 110.415 35.1775C110.678 34.5448 110.81 32.91 110.81 30.2735V23.4712C110.81 23.0492 110.758 22.4165 110.652 21.5728C110.547 20.7291 110.441 20.2017 110.336 19.9907C109.967 19.3054 108.861 18.9626 107.017 18.9626C106.912 18.9097 106.859 18.6461 106.859 18.1715C106.912 17.6443 106.991 17.3804 107.096 17.3804C109.098 17.2223 111.047 16.8532 112.944 16.2732C114.84 15.6405 116.289 15.0867 117.29 14.6121C117.448 14.6647 117.632 14.7968 117.843 15.0075C118.054 15.2185 118.133 15.3766 118.08 15.4821C117.87 16.3787 117.738 17.1431 117.685 17.7761C117.632 18.4088 117.632 18.7253 117.685 18.7253C117.738 18.7253 117.79 18.6987 117.843 18.6461C117.896 18.5935 117.975 18.5406 118.08 18.488C118.818 17.6443 119.713 16.9059 120.767 16.2732C122.611 15.1659 124.244 14.6121 125.666 14.6121C127.141 14.6121 128.353 14.9286 129.301 15.5613C130.302 16.194 131.119 17.3541 131.751 19.0415C131.856 19.0415 132.041 18.9097 132.304 18.6461C132.568 18.3296 133.015 17.9342 133.648 17.4596C134.332 16.985 135.07 16.5368 135.86 16.1151C137.757 15.113 139.337 14.6121 140.601 14.6121C141.918 14.6121 143.025 14.8757 143.92 15.4032C144.869 15.8778 145.58 16.6159 146.054 17.6177C146.95 19.4106 147.397 22.4954 147.397 26.8722V30.2735C147.397 31.4337 147.397 32.4091 147.397 33.2002C147.45 33.991 147.555 34.5711 147.713 34.9402C147.872 35.2567 148.082 35.494 148.346 35.6521C148.662 35.7576 149.004 35.8631 149.373 35.9686C149.9 36.074 150.506 36.1267 151.191 36.1267C151.296 36.3376 151.348 36.6804 151.348 37.155C151.348 37.6296 151.296 37.9461 151.191 38.1042C148.556 37.8406 146.265 37.7088 144.316 37.7088C142.419 37.7088 140.154 37.8406 137.52 38.1042C137.414 37.9461 137.362 37.6296 137.362 37.155C137.362 36.6804 137.414 36.3376 137.52 36.1267C137.836 36.1267 138.336 36.074 139.021 35.9686C139.706 35.8104 140.101 35.5466 140.206 35.1775C140.47 34.6503 140.601 33.991 140.601 33.2002C140.654 32.4091 140.68 31.4337 140.68 30.2735V26.1603C140.68 22.8382 140.048 20.5971 138.784 19.4372C138.362 19.0152 137.836 18.8042 137.204 18.8042C136.624 18.8042 136.045 18.9097 135.465 19.1207C134.885 19.3317 134.359 19.569 133.885 19.8326C132.778 20.5181 132.225 21.1245 132.225 21.6517V21.9682C132.383 23.4975 132.462 25.1322 132.462 26.8722V30.2735C132.462 32.91 132.541 34.4393 132.699 34.8613C132.857 35.2304 133.068 35.494 133.331 35.6521C133.648 35.7576 133.99 35.8631 134.359 35.9686C134.885 36.074 135.465 36.1267 136.097 36.1267C136.202 36.3376 136.255 36.6804 136.255 37.155C136.255 37.6296 136.202 37.9461 136.097 38.1042C133.463 37.8406 131.119 37.7088 129.064 37.7088C127.273 37.7088 125.06 37.8406 122.426 38.1042C122.321 37.9461 122.268 37.6296 122.268 37.155C122.268 36.6804 122.321 36.3376 122.426 36.1267C122.795 36.1267 123.322 36.074 124.007 35.9686C124.744 35.8104 125.192 35.494 125.35 35.0194C125.561 34.4393 125.666 32.8574 125.666 30.2735V26.1603C125.666 21.2563 124.507 18.8042 122.189 18.8042C121.188 18.8042 120.319 19.0415 119.582 19.5161C118.265 20.4653 117.606 21.2037 117.606 21.7309V30.2735C117.606 32.91 117.685 34.4393 117.843 34.8613C118.001 35.2304 118.212 35.494 118.475 35.6521C118.739 35.7576 119.028 35.8631 119.344 35.9686C119.871 36.074 120.424 36.1267 121.004 36.1267C121.109 36.3376 121.162 36.6804 121.162 37.155C121.162 37.6296 121.109 37.9461 121.004 38.1042C118.37 37.8406 116.105 37.7088 114.208 37.7088ZM159.53 15.4821C159.425 15.746 159.24 16.7214 158.977 18.4088V30.2735C158.977 32.91 159.056 34.4393 159.214 34.8613C159.372 35.2304 159.583 35.494 159.846 35.6521C160.11 35.7576 160.399 35.8631 160.715 35.9686C161.242 36.074 161.795 36.1267 162.375 36.1267C162.48 36.3376 162.533 36.6804 162.533 37.155C162.533 37.6296 162.48 37.9461 162.375 38.1042C159.741 37.8406 157.475 37.7088 155.579 37.7088C153.419 37.7088 151.022 37.8406 148.388 38.1042C148.283 37.9461 148.23 37.6296 148.23 37.155C148.23 36.6804 148.283 36.3376 148.388 36.1267C149.494 36.1267 150.311 36.0212 150.837 35.8104C151.364 35.5466 151.681 35.3358 151.786 35.1775C152.049 34.5448 152.181 32.91 152.181 30.2735V23.4712C152.181 23.0492 152.128 22.4165 152.023 21.5728C151.918 20.7291 151.812 20.2017 151.707 19.9907C151.338 19.3054 150.232 18.9626 148.388 18.9626C148.283 18.9097 148.23 18.6461 148.23 18.1715C148.283 17.6443 148.362 17.3804 148.467 17.3804C150.469 17.2223 152.418 16.8532 154.315 16.2732C156.211 15.6405 157.66 15.0867 158.661 14.6121C158.819 14.6647 159.003 14.7968 159.214 15.0075C159.425 15.2185 159.53 15.3766 159.53 15.4821ZM151.312 5.67412C151.312 4.61945 151.654 3.7492 152.339 3.06389C153.076 2.32544 153.972 1.95634 155.026 1.95634C156.079 1.95634 156.975 2.32544 157.712 3.06389C158.45 3.7492 158.819 4.61945 158.819 5.67412C158.819 6.72879 158.45 7.62509 157.712 8.36328C156.975 9.10173 156.079 9.47082 155.026 9.47082C153.972 9.47082 153.076 9.10173 152.339 8.36328C151.654 7.62509 151.312 6.72879 151.312 5.67412ZM167.022 23.1547C167.127 23.1547 167.469 23.1547 168.049 23.1547C168.681 23.1021 169.366 23.0492 170.104 22.9966C171.789 22.9437 173.001 22.8648 173.738 22.7593C174.212 22.7064 174.45 22.4165 174.45 21.889C174.45 21.3089 174.397 20.7026 174.292 20.0699C174.186 19.4372 174.002 18.8834 173.738 18.4088C173.159 17.2486 172.395 16.6686 171.447 16.6686C170.551 16.6686 169.84 16.9324 169.313 17.4596C168.787 17.9342 168.339 18.5143 167.97 19.1999C167.338 20.5708 167.022 21.889 167.022 23.1547ZM179.507 24.5784C176.346 24.842 172.184 25.053 167.022 25.2111C167.022 28.4278 167.917 30.8007 169.708 32.33C171.078 33.4375 172.553 33.991 174.134 33.991C175.767 33.991 177.031 33.7011 177.927 33.121C178.822 32.5409 179.56 31.9609 180.139 31.3808C180.561 31.4863 180.772 31.7764 180.772 32.251C180.772 32.7256 180.666 33.121 180.455 33.4375C180.297 33.7011 179.955 34.1228 179.428 34.7029C178.901 35.2304 178.243 35.7576 177.453 36.285C175.451 37.6559 173.528 38.3415 171.684 38.3415C169.84 38.3415 168.26 38.1042 166.943 37.6296C165.626 37.1024 164.466 36.364 163.466 35.4148C161.306 33.3583 160.226 30.6955 160.226 27.426C160.226 24.0512 161.385 21.0982 163.703 18.5669C166.179 15.8778 168.865 14.5329 171.763 14.5329C174.871 14.5329 177.242 15.4558 178.875 17.3015C180.245 18.7779 180.929 20.4918 180.929 22.4428C180.929 23.0229 180.798 23.5238 180.534 23.9457C180.271 24.3675 179.929 24.5784 179.507 24.5784ZM186.983 37.7088C184.823 37.7088 182.426 37.8406 179.792 38.1042C179.687 37.9461 179.634 37.6296 179.634 37.155C179.634 36.6804 179.687 36.3376 179.792 36.1267C180.899 36.1267 181.715 36.0212 182.242 35.8104C182.769 35.5466 183.085 35.3358 183.19 35.1775C183.454 34.5448 183.585 32.91 183.585 30.2735V23.4712C183.585 23.0492 183.533 22.4165 183.427 21.5728C183.322 20.7291 183.217 20.2017 183.111 19.9907C182.742 19.3054 181.636 18.9626 179.792 18.9626C179.687 18.9097 179.634 18.6461 179.634 18.1715C179.687 17.6443 179.766 17.3804 179.871 17.3804C181.873 17.2223 183.822 16.8532 185.719 16.2732C187.616 15.6405 189.064 15.0867 190.065 14.6121C190.223 14.6121 190.407 14.7439 190.618 15.0075C190.829 15.2185 190.908 15.3766 190.855 15.4821C190.855 15.5876 190.829 15.7986 190.776 16.1151C190.776 16.3787 190.724 16.7214 190.618 17.1432C190.355 18.1978 190.302 18.7253 190.46 18.7253C190.513 18.7253 190.566 18.6987 190.618 18.6461C190.671 18.5935 190.75 18.5406 190.855 18.488C191.593 17.6443 192.489 16.9059 193.542 16.2732C195.386 15.1659 196.966 14.6121 198.283 14.6121C199.653 14.6121 200.786 14.8757 201.681 15.4032C202.63 15.8778 203.367 16.6159 203.894 17.6177C204.79 19.4106 205.237 22.4954 205.237 26.8722V30.2735C205.237 32.91 205.316 34.4393 205.474 34.8613C205.633 35.2304 205.843 35.494 206.107 35.6521C206.423 35.7576 206.765 35.8631 207.134 35.9686C207.766 36.074 208.372 36.1267 208.951 36.1267C209.109 36.3376 209.162 36.6804 209.109 37.155C209.109 37.6296 209.057 37.9461 208.951 38.1042C206.475 37.8406 204.105 37.7088 201.84 37.7088C200.101 37.7088 197.915 37.8406 195.28 38.1042C195.175 37.9461 195.123 37.6296 195.123 37.155C195.123 36.6804 195.175 36.3376 195.28 36.1267C195.649 36.1267 196.176 36.074 196.861 35.9686C197.546 35.8104 197.967 35.494 198.125 35.0194C198.336 34.4393 198.441 32.8574 198.441 30.2735V26.1603C198.441 21.2563 197.282 18.8042 194.965 18.8042C193.963 18.8042 193.094 19.0415 192.357 19.5161C191.04 20.4653 190.381 21.2037 190.381 21.7309V30.2735C190.381 32.91 190.46 34.4393 190.618 34.8613C190.776 35.2304 190.987 35.494 191.25 35.6521C191.514 35.7576 191.804 35.8631 192.12 35.9686C192.646 36.074 193.2 36.1267 193.779 36.1267C193.885 36.3376 193.937 36.6804 193.937 37.155C193.937 37.6296 193.885 37.9461 193.779 38.1042C191.145 37.8406 188.88 37.7088 186.983 37.7088ZM205.024 17.3015C205.446 16.7214 205.999 16.1414 206.684 15.5613H208.975V12.7929C209.976 11.8964 210.925 10.9472 211.82 9.94541C212.769 8.94336 213.638 8.04706 214.428 7.25599C214.744 7.04501 215.034 6.96608 215.297 7.0187C215.56 7.0187 215.719 7.09788 215.771 7.25599V15.5613H221.698C221.909 15.5613 222.014 15.8249 222.014 16.3523C222.014 16.8269 221.619 17.3804 220.829 18.0134H215.771V30.9062C215.771 33.543 216.72 34.8613 218.616 34.8613C219.196 34.8613 219.775 34.7029 220.355 34.3867C220.934 34.0176 221.276 33.7803 221.382 33.6748C221.593 33.8855 221.698 34.0702 221.698 34.2283C221.698 34.7029 221.593 35.0457 221.382 35.2567C221.224 35.4677 220.96 35.7313 220.592 36.0477C220.276 36.3639 219.881 36.6804 219.406 36.9969C218.037 37.8406 216.877 38.2623 215.929 38.2623C215.034 38.2623 214.164 38.1305 213.321 37.8669C212.531 37.6559 211.82 37.2342 211.188 36.6012C209.713 35.283 208.975 33.2791 208.975 30.59V18.0134H205.261C205.103 17.9079 205.024 17.6706 205.024 17.3015ZM231.863 16.6686C229.492 16.6686 228.175 18.6198 227.912 22.522C227.807 23.5767 227.754 24.6311 227.754 25.6857C227.754 26.7404 227.833 27.9006 227.991 29.1662C228.202 30.379 228.544 31.4863 229.018 32.4883C230.019 34.8613 231.363 36.0477 233.048 36.0477C235.524 36.0477 236.92 34.1228 237.236 30.2735C237.289 29.2717 237.315 28.2433 237.315 27.1887C237.315 26.134 237.21 24.9738 236.999 23.7085C236.789 22.4428 236.446 21.3089 235.972 20.3072C234.971 17.8816 233.602 16.6686 231.863 16.6686ZM232.495 14.5329C234.286 14.5329 235.919 14.8231 237.395 15.4032C238.922 15.9832 240.239 16.8004 241.346 17.855C243.611 20.0699 244.742 22.8382 244.742 26.1603C244.742 29.4298 243.557 32.2773 241.188 34.7029C238.922 37.0758 236.051 38.2623 232.574 38.2623C228.939 38.2623 225.989 37.1287 223.724 34.8613C221.458 32.5938 220.326 29.8252 220.326 26.556C220.326 23.3394 221.485 20.5181 223.803 18.0923C226.121 15.7194 229.018 14.5329 232.495 14.5329Z" fill="#FFD300"/>
<mask id="mask0_11_2" style="mask-type:luminance" maskUnits="userSpaceOnUse" x="-15" y="-31" width="157" height="122">
<path d="M141.67 -30.9999H-15V91.0001H141.67V-30.9999Z" fill="white"/>
</mask>
<g mask="url(#mask0_11_2)">
<mask id="mask1_11_2" style="mask-type:luminance" maskUnits="userSpaceOnUse" x="-15" y="-31" width="157" height="122">
<path d="M141.67 -30.9999H-15V91.0001H141.67V-30.9999Z" fill="white"/>
</mask>
<g mask="url(#mask1_11_2)">
<path d="M88.5705 3.02493C82.5044 5.07778 82.2616 11.5079 82.2616 16.8535C82.2616 18.976 82.8767 22.353 81.0428 23.8985C78.9363 25.6739 73.3776 25.2689 72.1979 22.6071C71.3221 20.6316 72.1763 18.4116 71.5797 16.4055C71.1476 14.9533 69.4997 14.5004 68.3837 15.5956C67.1025 16.8525 67.5409 19.4439 67.5409 21.0606C67.5403 25.6176 67.5099 30.1757 67.5414 34.7328C67.553 36.4209 67.5705 39.5212 70.1017 39.2205C72.8161 38.8981 71.5303 33.3957 71.8245 31.5987C72.3698 28.2722 76.3901 28.0703 79.1045 28.5002C83.138 29.1399 82.0292 33.3436 82.2926 36.3077C82.4356 37.92 83.3725 39.789 85.3404 39.1176C87.7593 38.2925 86.9932 34.0459 86.9932 32.1035V18.4312C86.9932 16.0991 86.6 13.3359 87.2215 11.0689C87.9528 8.39886 90.5203 6.42081 93.302 7.15101C94.8135 7.5477 96.8113 9.0718 98.2319 7.59413C99.5257 6.24903 98.1935 4.52221 96.9513 3.7804C94.7538 2.46807 90.9772 2.2104 88.5705 3.02493ZM52.2944 46.8276C51.7141 43.4069 49.0249 44.3793 46.5115 43.0688C42.1147 40.7761 38.7535 37.4689 33.8937 35.9675C31.9917 35.3802 28.268 35.8298 27.0736 34.0398C26.2496 32.8045 26.534 30.8783 26.5333 29.4742V20.0087C26.5297 18.278 26.8041 15.2572 24.4097 14.9951C21.8409 14.714 21.8141 17.7341 21.8022 19.4828C21.7708 24.0394 21.794 28.5982 21.8017 33.1553C21.8048 34.9606 21.5644 37.3038 23.0811 38.6226C24.8506 40.1604 28.5272 39.4467 30.7391 39.8906C34.98 40.7407 39.5833 43.4833 42.3054 46.8276C39.7036 46.8276 36.9897 47.046 34.4193 46.5831C26.8469 45.2202 21.9427 39.9283 18.8101 33.1553C16.7509 28.7037 15.4656 24.0726 13.8007 19.4828C13.1766 17.7622 12.4193 15.2239 10.2485 14.9951C8.09749 14.7687 7.28523 17.3624 6.74229 18.9569C5.13527 23.6772 3.15298 28.3837 1.75184 33.1553C1.31868 34.6304 -0.171155 38.2886 1.98873 39.1176C4.11446 39.9332 5.37785 37.0882 6.66522 36.0124C8.28145 34.6614 10.8969 34.3526 12.8561 35.1231C15.957 36.3431 17.3905 40.702 19.4172 43.1446C22.8907 47.3311 28.3996 50.584 33.8937 50.9872C36.6106 51.1866 39.6031 51.2381 42.3054 50.8827C44.2086 50.6323 46.1613 49.6988 48.0885 49.8394C50.0732 49.9833 51.9117 51.0625 53.8717 51.389C57.0793 51.9237 61.1885 51.8917 64.3866 51.316C66.3375 50.9653 74.4864 48.8807 72.2479 45.5441C71.2427 44.0453 69.4505 44.4959 68.0668 45.0502C65.1908 46.2024 62.3161 47.7306 59.1291 47.6991C56.8368 47.6759 54.6156 46.8761 52.2944 46.8276ZM48.6145 15.0299C40.9454 16.8576 37.3324 26.4159 41.0216 33.1553C43.8821 38.3807 49.7632 40.5021 55.4489 39.1875C62.9985 37.4416 66.9405 27.794 63.1884 21.0606C60.34 15.9479 54.2162 13.6952 48.6145 15.0299ZM130.104 51.0346V46.8276C125.934 46.8276 121.767 46.5658 118.012 44.5049C112.85 41.6726 109.576 35.8161 107.476 30.518C105.893 26.5219 104.681 22.4209 103.068 18.4315C102.473 16.9598 101.637 14.7748 99.6582 14.9951C97.6511 15.2185 97.1615 17.9432 96.6294 19.4828C95.0491 24.0585 93.2842 28.5676 91.7232 33.1553C91.2591 34.5198 89.7091 37.1687 90.7107 38.5491C91.5119 39.6533 93.1917 39.3404 94.1145 38.6211C96.8956 36.4509 98.6025 33.4886 102.758 35.1231C106.348 36.5355 107.964 42.0381 110.673 44.677C116.386 50.2431 122.507 51.0346 130.104 51.0346Z" fill="#272A57"/>
</g>
<path d="M49.2807 19.4497C39.1346 22.8791 44.5229 38.5072 54.5361 34.7861C63.9789 31.277 58.8209 16.2253 49.2807 19.4497ZM99.226 24.3387C98.8248 25.5445 98.195 26.7666 97.9626 28.0183C97.6129 29.903 99.678 32.5133 101.292 30.2584C102.493 28.5798 100.308 25.5378 99.226 24.3387ZM9.32469 24.8646C8.70169 26.2729 7.54824 28.3794 8.18679 29.9556C8.8328 31.5499 11.1038 31.0379 11.465 29.5197C11.8083 28.0771 10.8144 26.2126 10.3762 24.8646H9.32469Z" fill="white"/>
</g>
<path d="M244.642 46.8944H130.074V51.0212H244.742V50.5054V49.9895V46.8944H244.642Z" fill="#272A57" stroke="#272A57" stroke-width="0.5"/>
</g>
<defs>
<clipPath id="clip0_11_2">
<rect width="260" height="122" fill="white" transform="translate(-15 -30.9999)"/>
</clipPath>
</defs>
</svg>
