<svg width="202" height="46" viewBox="0 0 202 46" fill="none" xmlns="http://www.w3.org/2000/svg">
<g clip-path="url(#clip0_8_16)">
<path d="M88.5377 30.9395C86.8736 30.9395 85.0271 31.041 82.9979 31.2441C82.9167 31.1223 82.8762 30.8785 82.8762 30.5128C82.8762 30.1471 82.9167 29.883 82.9979 29.7205C83.8501 29.7205 84.4792 29.6392 84.8851 29.4768C85.2909 29.2735 85.5345 29.1112 85.6156 28.9891C85.8185 28.5016 85.92 27.2421 85.92 25.2107V19.9695C85.92 19.6444 85.8795 19.1569 85.7983 18.5068C85.7171 17.8568 85.6359 17.4504 85.5547 17.2878C85.2706 16.7598 84.4184 16.4957 82.9979 16.4957C82.9167 16.4549 82.8762 16.2518 82.8762 15.8862C82.9167 15.48 82.9777 15.2767 83.0588 15.2767C84.6011 15.1548 86.1026 14.8705 87.5636 14.4235C89.0246 13.936 90.1407 13.5093 90.9119 13.1437C91.0335 13.1842 91.1757 13.286 91.3379 13.4483C91.5002 13.6109 91.5612 13.7327 91.5205 13.814C91.3583 14.5048 91.2567 15.0938 91.2162 15.5815C91.1757 16.069 91.1757 16.3128 91.2162 16.3128C91.2567 16.3128 91.2974 16.2924 91.3379 16.2518C91.3786 16.2113 91.4393 16.1706 91.5205 16.13C92.0888 15.48 92.7786 14.911 93.5903 14.4235C95.0109 13.5704 96.2688 13.1437 97.3646 13.1437C98.501 13.1437 99.4344 13.3875 100.165 13.875C100.936 14.3625 101.565 15.2564 102.052 16.5565C102.133 16.5565 102.275 16.4549 102.478 16.2518C102.681 16.008 103.026 15.7033 103.513 15.3377C104.041 14.972 104.609 14.6266 105.218 14.3017C106.679 13.5296 107.896 13.1437 108.87 13.1437C109.885 13.1437 110.737 13.3468 111.427 13.7532C112.157 14.1188 112.705 14.6876 113.071 15.4595C113.761 16.8409 114.106 19.2177 114.106 22.59V25.2107C114.106 26.1045 114.106 26.8561 114.106 27.4657C114.146 28.075 114.227 28.5219 114.349 28.8063C114.471 29.0501 114.633 29.233 114.836 29.3548C115.08 29.4361 115.343 29.5174 115.627 29.5986C116.033 29.6799 116.5 29.7205 117.028 29.7205C117.109 29.883 117.149 30.1471 117.149 30.5128C117.149 30.8785 117.109 31.1223 117.028 31.2441C114.998 31.041 113.233 30.9395 111.731 30.9395C110.27 30.9395 108.525 31.041 106.496 31.2441C106.415 31.1223 106.374 30.8785 106.374 30.5128C106.374 30.1471 106.415 29.883 106.496 29.7205C106.74 29.7205 107.125 29.6799 107.653 29.5986C108.18 29.4768 108.485 29.2735 108.566 28.9891C108.769 28.5829 108.87 28.075 108.87 27.4657C108.911 26.8561 108.931 26.1045 108.931 25.2107V22.0415C108.931 19.4818 108.444 17.755 107.47 16.8613C107.145 16.5362 106.74 16.3737 106.253 16.3737C105.806 16.3737 105.36 16.4549 104.913 16.6175C104.467 16.7801 104.061 16.9629 103.696 17.166C102.843 17.6942 102.417 18.1614 102.417 18.5677V18.8115C102.539 19.9898 102.6 21.2493 102.6 22.59V25.2107C102.6 27.2421 102.661 28.4204 102.783 28.7455C102.904 29.0299 103.067 29.233 103.27 29.3548C103.513 29.4361 103.777 29.5174 104.061 29.5986C104.467 29.6799 104.913 29.7205 105.4 29.7205C105.481 29.883 105.522 30.1471 105.522 30.5128C105.522 30.8785 105.481 31.1223 105.4 31.2441C103.371 31.041 101.565 30.9395 99.9823 30.9395C98.6025 30.9395 96.8979 31.041 94.8687 31.2441C94.7875 31.1223 94.747 30.8785 94.747 30.5128C94.747 30.1471 94.7875 29.883 94.8687 29.7205C95.1528 29.7205 95.5588 29.6799 96.0862 29.5986C96.6545 29.4768 96.9993 29.233 97.1212 28.8673C97.2834 28.4204 97.3646 27.2015 97.3646 25.2107V22.0415C97.3646 18.263 96.4719 16.3737 94.6861 16.3737C93.9151 16.3737 93.2453 16.5565 92.6772 16.9222C91.6626 17.6535 91.1552 18.2225 91.1552 18.6287V25.2107C91.1552 27.2421 91.2162 28.4204 91.3379 28.7455C91.4597 29.0299 91.6219 29.233 91.825 29.3548C92.0279 29.4361 92.251 29.5174 92.4946 29.5986C92.9003 29.6799 93.3265 29.7205 93.773 29.7205C93.8542 29.883 93.8947 30.1471 93.8947 30.5128C93.8947 30.8785 93.8542 31.1223 93.773 31.2441C91.7438 31.041 89.9987 30.9395 88.5377 30.9395ZM123.452 13.814C123.371 14.0173 123.229 14.7689 123.026 16.069V25.2107C123.026 27.2421 123.087 28.4204 123.209 28.7455C123.33 29.0299 123.493 29.233 123.696 29.3548C123.899 29.4361 124.122 29.5174 124.365 29.5986C124.771 29.6799 125.197 29.7205 125.644 29.7205C125.725 29.883 125.765 30.1471 125.765 30.5128C125.765 30.8785 125.725 31.1223 125.644 31.2441C123.615 31.041 121.869 30.9395 120.408 30.9395C118.744 30.9395 116.898 31.041 114.869 31.2441C114.788 31.1223 114.747 30.8785 114.747 30.5128C114.747 30.1471 114.788 29.883 114.869 29.7205C115.721 29.7205 116.35 29.6392 116.756 29.4768C117.162 29.2735 117.405 29.1112 117.486 28.9891C117.689 28.5016 117.791 27.2421 117.791 25.2107V19.9695C117.791 19.6444 117.75 19.1569 117.669 18.5068C117.588 17.8568 117.507 17.4504 117.425 17.2878C117.141 16.7598 116.289 16.4957 114.869 16.4957C114.788 16.4549 114.747 16.2518 114.747 15.8862C114.788 15.48 114.848 15.2767 114.929 15.2767C116.472 15.1548 117.973 14.8705 119.434 14.4235C120.895 13.936 122.011 13.5093 122.782 13.1437C122.904 13.1842 123.046 13.286 123.209 13.4483C123.371 13.6109 123.452 13.7327 123.452 13.814ZM117.121 6.25703C117.121 5.44442 117.385 4.7739 117.912 4.24587C118.481 3.6769 119.171 3.39252 119.982 3.39252C120.794 3.39252 121.484 3.6769 122.052 4.24587C122.62 4.7739 122.904 5.44442 122.904 6.25703C122.904 7.06964 122.62 7.76024 122.052 8.32901C121.484 8.89798 120.794 9.18236 119.982 9.18236C119.171 9.18236 118.481 8.89798 117.912 8.32901C117.385 7.76024 117.121 7.06964 117.121 6.25703ZM129.223 19.7257C129.305 19.7257 129.568 19.7257 130.015 19.7257C130.502 19.6851 131.029 19.6444 131.598 19.6038C132.896 19.5631 133.83 19.5023 134.398 19.421C134.763 19.3803 134.946 19.1569 134.946 18.7505C134.946 18.3035 134.905 17.8363 134.824 17.3488C134.743 16.8613 134.601 16.4347 134.398 16.069C133.951 15.1751 133.363 14.7282 132.632 14.7282C131.942 14.7282 131.395 14.9315 130.989 15.3377C130.583 15.7033 130.238 16.1503 129.954 16.6785C129.467 17.7348 129.223 18.7505 129.223 19.7257ZM138.842 20.8227C136.407 21.0258 133.201 21.1883 129.223 21.3101C129.223 23.7885 129.913 25.6169 131.293 26.7951C132.348 27.6485 133.485 28.075 134.702 28.075C135.96 28.075 136.934 27.8516 137.624 27.4046C138.314 26.9577 138.882 26.5108 139.329 26.0638C139.654 26.1451 139.816 26.3687 139.816 26.7343C139.816 27.1 139.735 27.4046 139.572 27.6485C139.451 27.8516 139.187 28.1765 138.781 28.6235C138.375 29.0299 137.868 29.4361 137.259 29.8425C135.717 30.8987 134.236 31.427 132.815 31.427C131.395 31.427 130.177 31.2441 129.163 30.8785C128.148 30.4723 127.255 29.9033 126.484 29.172C124.82 27.5875 123.988 25.5358 123.988 23.0167C123.988 20.4165 124.881 18.1412 126.667 16.1908C128.574 14.1189 130.644 13.0827 132.876 13.0827C135.27 13.0827 137.097 13.7937 138.355 15.2158C139.41 16.3534 139.938 17.674 139.938 19.1772C139.938 19.6241 139.836 20.01 139.633 20.3352C139.43 20.6601 139.167 20.8227 138.842 20.8227ZM144.601 30.9395C142.937 30.9395 141.091 31.041 139.062 31.2441C138.98 31.1223 138.94 30.8785 138.94 30.5128C138.94 30.1471 138.98 29.883 139.062 29.7205C139.914 29.7205 140.543 29.6392 140.949 29.4768C141.355 29.2735 141.598 29.1112 141.679 28.9891C141.882 28.5016 141.984 27.2421 141.984 25.2107V19.9695C141.984 19.6444 141.943 19.1569 141.862 18.5068C141.781 17.8568 141.7 17.4504 141.618 17.2878C141.334 16.7598 140.482 16.4957 139.062 16.4957C138.98 16.4549 138.94 16.2518 138.94 15.8862C138.98 15.48 139.041 15.2767 139.122 15.2767C140.665 15.1548 142.166 14.8705 143.627 14.4235C145.088 13.936 146.204 13.5093 146.975 13.1437C147.097 13.1437 147.239 13.2452 147.402 13.4483C147.564 13.6109 147.625 13.7327 147.584 13.814C147.584 13.8953 147.564 14.0578 147.523 14.3017C147.523 14.5048 147.483 14.7689 147.402 15.0938C147.199 15.9064 147.158 16.3128 147.28 16.3128C147.32 16.3128 147.361 16.2924 147.402 16.2518C147.442 16.2113 147.503 16.1706 147.584 16.13C148.152 15.48 148.842 14.911 149.654 14.4235C151.074 13.5704 152.292 13.1437 153.307 13.1437C154.362 13.1437 155.234 13.3468 155.924 13.7532C156.655 14.1188 157.223 14.6876 157.629 15.4595C158.319 16.8409 158.664 19.2177 158.664 22.59V25.2107C158.664 27.2421 158.724 28.4204 158.846 28.7455C158.968 29.0299 159.13 29.233 159.333 29.3548C159.577 29.4361 159.84 29.5174 160.125 29.5986C160.612 29.6799 161.078 29.7205 161.525 29.7205C161.647 29.883 161.687 30.1471 161.647 30.5128C161.647 30.8785 161.606 31.1223 161.525 31.2441C159.617 31.041 157.791 30.9395 156.046 30.9395C154.707 30.9395 153.022 31.041 150.993 31.2441C150.912 31.1223 150.871 30.8785 150.871 30.5128C150.871 30.1471 150.912 29.883 150.993 29.7205C151.277 29.7205 151.683 29.6799 152.211 29.5986C152.738 29.4768 153.063 29.233 153.185 28.8673C153.347 28.4204 153.428 27.2015 153.428 25.2107V22.0415C153.428 18.263 152.535 16.3737 150.75 16.3737C149.979 16.3737 149.309 16.5565 148.741 16.9222C147.726 17.6535 147.219 18.2225 147.219 18.6287V25.2107C147.219 27.2421 147.28 28.4204 147.402 28.7455C147.523 29.0299 147.686 29.233 147.888 29.3548C148.092 29.4361 148.315 29.5174 148.558 29.5986C148.964 29.6799 149.39 29.7205 149.837 29.7205C149.918 29.883 149.958 30.1471 149.958 30.5128C149.958 30.8785 149.918 31.1223 149.837 31.2441C147.807 31.041 146.062 30.9395 144.601 30.9395ZM158.499 15.2158C158.824 14.7689 159.25 14.322 159.778 13.875H161.543V11.742C162.314 11.0512 163.045 10.3199 163.735 9.54802C164.465 8.77595 165.135 8.08536 165.744 7.47585C165.987 7.31329 166.21 7.25248 166.413 7.29302C166.616 7.29302 166.738 7.35403 166.779 7.47585V13.875H171.344C171.507 13.875 171.588 14.0781 171.588 14.4845C171.588 14.8502 171.283 15.2767 170.675 15.7643H166.779V25.6981C166.779 27.7298 167.509 28.7455 168.97 28.7455C169.417 28.7455 169.863 28.6235 170.309 28.3798C170.756 28.0954 171.02 27.9126 171.101 27.8313C171.263 27.9937 171.344 28.136 171.344 28.2578C171.344 28.6235 171.263 28.8876 171.101 29.0501C170.979 29.2127 170.776 29.4158 170.492 29.6597C170.248 29.9033 169.944 30.1471 169.579 30.391C168.524 31.041 167.631 31.366 166.9 31.366C166.21 31.366 165.541 31.2644 164.891 31.0613C164.283 30.8987 163.735 30.5738 163.248 30.0861C162.111 29.0704 161.543 27.5265 161.543 25.4545V15.7643H158.682C158.56 15.6831 158.499 15.5002 158.499 15.2158ZM179.175 14.7282C177.349 14.7282 176.334 16.2316 176.131 19.2382C176.05 20.0508 176.009 20.8632 176.009 21.6758C176.009 22.4884 176.07 23.3823 176.192 24.3575C176.354 25.2919 176.618 26.1451 176.984 26.9172C177.755 28.7455 178.79 29.6597 180.088 29.6597C181.996 29.6597 183.071 28.1765 183.315 25.2107C183.355 24.4388 183.375 23.6464 183.375 22.8338C183.375 22.0212 183.294 21.1273 183.132 20.1523C182.97 19.1772 182.706 18.3035 182.341 17.5317C181.569 15.6628 180.514 14.7282 179.175 14.7282ZM179.662 13.0827C181.042 13.0827 182.3 13.3062 183.436 13.7532C184.613 14.2001 185.628 14.8297 186.48 15.6423C188.225 17.3488 189.097 19.4818 189.097 22.0415C189.097 24.5606 188.184 26.7546 186.358 28.6235C184.613 30.4518 182.401 31.366 179.723 31.366C176.923 31.366 174.65 30.4925 172.905 28.7455C171.16 26.9984 170.287 24.8653 170.287 22.3463C170.287 19.868 171.18 17.6942 172.966 15.8252C174.751 13.9968 176.984 13.0827 179.662 13.0827ZM188.66 25.3325C188.66 25.1294 188.865 25.0278 189.27 25.0278C189.675 25.0278 189.96 25.1701 190.121 25.4545C190.405 27.039 191.015 28.197 191.948 28.9283C192.638 29.4971 193.409 29.7815 194.262 29.7815C195.114 29.7815 195.743 29.5581 196.148 29.1112C196.555 28.6642 196.757 28.1765 196.757 27.6485C196.757 27.1203 196.614 26.6936 196.331 26.3687C196.088 26.003 195.763 25.6981 195.358 25.4545C194.993 25.2107 194.566 24.9668 194.079 24.7232C192.293 23.9105 190.792 22.9354 189.573 21.7978C188.761 21.0258 188.356 20.0508 188.356 18.8725C188.356 17.6535 188.601 16.6988 189.087 16.008C189.573 15.3174 190.183 14.7486 190.913 14.3017C192.293 13.4483 193.937 13.0219 195.844 13.0219C196.777 13.0219 197.589 13.1234 198.28 13.3265C198.969 13.4891 199.66 13.6516 200.348 13.814C200.593 14.8297 200.795 15.8659 200.958 16.9222C201.121 17.9786 201.202 18.6084 201.202 18.8115C201.202 18.9741 201.019 19.0553 200.654 19.0553C200.289 19.0553 199.983 18.9333 199.741 18.6897C199.415 17.5114 199.05 16.658 198.645 16.13C197.792 15.1548 196.738 14.6674 195.479 14.6674C194.788 14.6674 194.22 14.8502 193.774 15.2158C193.369 15.5815 193.166 16.069 193.166 16.6785C193.166 17.2878 193.287 17.7755 193.532 18.1412C193.815 18.5068 194.139 18.8318 194.504 19.1162C194.911 19.36 195.358 19.5834 195.844 19.7867C196.331 19.9898 196.819 20.2132 197.305 20.457C197.792 20.6601 198.3 20.9039 198.828 21.1883C199.354 21.4727 199.822 21.8181 200.227 22.2243C201.16 23.1589 201.627 24.2559 201.627 25.5153C201.627 26.7343 201.404 27.689 200.958 28.3798C200.511 29.0704 199.924 29.6392 199.193 30.0861C197.813 30.9395 195.987 31.366 193.714 31.366C192.779 31.366 191.888 31.2644 191.034 31.0613C190.183 30.8175 189.492 30.6346 188.966 30.5128C188.885 29.944 188.823 29.2127 188.783 28.3188C188.742 27.3844 188.702 26.6936 188.66 26.2466C188.66 25.7591 188.66 25.4545 188.66 25.3325Z" fill="#FFD300"/>
<mask id="mask0_8_16" style="mask-type:luminance" maskUnits="userSpaceOnUse" x="-11" y="-22" width="121" height="94">
<path d="M109.693 -22H-11V72H109.693V-22Z" fill="white"/>
</mask>
<g mask="url(#mask0_8_16)">
<mask id="mask1_8_16" style="mask-type:luminance" maskUnits="userSpaceOnUse" x="-11" y="-22" width="121" height="94">
<path d="M109.693 -22H-11V72H109.693V-22Z" fill="white"/>
</mask>
<g mask="url(#mask1_8_16)">
<path d="M68.7872 4.21587C64.1141 5.79757 63.9271 10.7519 63.9271 14.8707C63.9271 16.506 64.401 19.108 62.9882 20.2988C61.3654 21.6667 57.0832 21.3547 56.1744 19.3038C55.4996 17.7817 56.1577 16.0712 55.6982 14.5255C55.3653 13.4066 54.0958 13.0576 53.2361 13.9014C52.2491 14.8699 52.5867 16.8665 52.5867 18.1122C52.5863 21.6234 52.5629 25.1353 52.5871 28.6465C52.5961 29.9472 52.6096 32.336 54.5595 32.1043C56.6506 31.8558 55.66 27.6163 55.8867 26.2317C56.3068 23.6687 59.4039 23.5131 61.495 23.8444C64.6023 24.3372 63.7481 27.5762 63.951 29.86C64.0611 31.1022 64.7829 32.5423 66.2989 32.025C68.1623 31.3892 67.5722 28.1173 67.5722 26.6207V16.0863C67.5722 14.2894 67.2692 12.1604 67.748 10.4137C68.3114 8.35644 70.2894 6.83236 72.4323 7.39497C73.5967 7.70062 75.1358 8.87493 76.2301 7.73639C77.2268 6.70001 76.2006 5.3695 75.2435 4.79795C73.5507 3.78681 70.6413 3.58827 68.7872 4.21587ZM40.8414 37.9654C40.3943 35.3299 38.3227 36.0791 36.3864 35.0693C32.9993 33.3028 30.4099 30.7547 26.666 29.5979C25.2009 29.1453 22.3322 29.4917 21.4121 28.1125C20.7773 27.1608 20.9964 25.6767 20.9958 24.5948V17.3017C20.9931 15.9683 21.2045 13.6407 19.3599 13.4388C17.381 13.2222 17.3603 15.5491 17.3512 16.8965C17.327 20.4073 17.3449 23.9199 17.3508 27.4311C17.3532 28.822 17.168 30.6275 18.3364 31.6436C19.6996 32.8284 22.5319 32.2785 24.2359 32.6206C27.503 33.2756 31.0491 35.3887 33.1462 37.9654C31.1418 37.9654 29.0511 38.1338 27.071 37.777C21.2374 36.7269 17.4594 32.6496 15.0461 27.4311C13.4598 24.0012 12.4697 20.433 11.1871 16.8965C10.7063 15.5708 10.1229 13.6151 8.45056 13.4388C6.79352 13.2643 6.16778 15.2628 5.74953 16.4913C4.51153 20.1283 2.98444 23.7546 1.90505 27.4311C1.57135 28.5676 0.423633 31.3862 2.08753 32.025C3.72513 32.6534 4.6984 30.4613 5.69015 29.6324C6.93524 28.5915 8.95012 28.3536 10.4594 28.9472C12.8482 29.8872 13.9525 33.2458 15.5138 35.1278C18.1897 38.3534 22.4336 40.8598 26.666 41.1704C28.7591 41.324 31.0644 41.3638 33.1462 41.0899C34.6124 40.8969 36.1167 40.1777 37.6013 40.286C39.1302 40.3969 40.5466 41.2284 42.0564 41.48C44.5275 41.892 47.6931 41.8673 50.1568 41.4238C51.6597 41.1535 57.9373 39.5473 56.2129 36.9766C55.4385 35.8217 54.0579 36.1689 52.9919 36.596C50.7763 37.4837 48.5618 38.6612 46.1066 38.637C44.3407 38.6191 42.6295 38.0028 40.8414 37.9654ZM38.0065 13.4656C32.0984 14.8738 29.3151 22.2384 32.1572 27.4311C34.3608 31.4572 38.8914 33.0918 43.2715 32.0788C49.0874 30.7336 52.1242 23.3003 49.2337 18.1122C47.0394 14.1729 42.3218 12.4372 38.0065 13.4656ZM100.783 41.207V37.9654C97.571 37.9654 94.3605 37.7637 91.4679 36.1759C87.4915 33.9936 84.9691 29.4812 83.3518 25.3991C82.1316 22.3201 81.198 19.1603 79.9553 16.0865C79.497 14.9525 78.8534 13.2691 77.3289 13.4388C75.7827 13.6109 75.4055 15.7103 74.9956 16.8965C73.7781 20.422 72.4186 23.8962 71.216 27.4311C70.8585 28.4824 69.6645 30.5233 70.4361 31.587C71.0532 32.4377 72.3473 32.1967 73.0582 31.6424C75.2007 29.9703 76.5156 27.6878 79.7165 28.9472C82.4824 30.0355 83.7276 34.2752 85.8139 36.3084C90.2151 40.597 94.9307 41.207 100.783 41.207Z" fill="#5B5E85"/>
<path d="M38.8164 16.7761C31.0001 19.4184 35.1511 31.4598 42.865 28.5927C50.1393 25.8889 46.1658 14.2917 38.8164 16.7761ZM77.2925 20.543C76.9835 21.4721 76.4983 22.4137 76.3193 23.3782C76.0499 24.8303 77.6407 26.8414 78.8842 25.1041C79.8096 23.8108 78.1261 21.467 77.2925 20.543ZM8.03554 20.9483C7.55561 22.0333 6.66702 23.6564 7.15895 24.8708C7.65661 26.0992 9.40609 25.7047 9.6844 24.535C9.94881 23.4235 9.18316 21.9868 8.84558 20.9483H8.03554Z" fill="white"/>
</g>
</g>
<path d="M201.712 38.0169H100.76V41.1966H201.801V40.7991V40.4017V38.0169H201.712Z" fill="#5B5E85" stroke="#5B5E85" stroke-width="0.5"/>
</g>
<defs>
<clipPath id="clip0_8_16">
<rect width="213" height="94" fill="white" transform="translate(-11 -22)"/>
</clipPath>
</defs>
</svg>
