<svg width="187" height="46" viewBox="0 0 187 46" fill="none" xmlns="http://www.w3.org/2000/svg">
<g clip-path="url(#clip0_10_30)">
<path d="M87.397 30.3763C85.7519 30.3763 83.9266 30.4768 81.9207 30.6777C81.8404 30.5572 81.8004 30.3159 81.8004 29.9542C81.8004 29.5924 81.8404 29.3311 81.9207 29.1702C82.7631 29.1702 83.385 29.0898 83.7863 28.9292C84.1874 28.7281 84.4282 28.5674 84.5084 28.4467C84.709 27.9644 84.8092 26.7182 84.8092 24.7084V19.523C84.8092 19.2014 84.7692 18.7191 84.6889 18.0759C84.6087 17.4328 84.5284 17.0307 84.4482 16.8699C84.1674 16.3475 83.3249 16.0862 81.9207 16.0862C81.8404 16.0459 81.8004 15.8449 81.8004 15.4831C81.8404 15.0812 81.9007 14.8801 81.9809 14.8801C83.5055 14.7596 84.9898 14.4782 86.4341 14.036C87.8783 13.5537 88.9816 13.1316 89.7439 12.7698C89.8642 12.8099 90.0047 12.9106 90.1651 13.0712C90.3256 13.2321 90.3858 13.3526 90.3456 13.433C90.1853 14.1164 90.0848 14.6992 90.0448 15.1817C90.0047 15.664 90.0047 15.9053 90.0448 15.9053C90.0848 15.9053 90.125 15.885 90.1651 15.8449C90.2053 15.8048 90.2653 15.7645 90.3456 15.7244C90.9074 15.0812 91.5893 14.5183 92.3917 14.036C93.796 13.1919 95.0395 12.7698 96.1227 12.7698C97.2462 12.7698 98.1688 13.0111 98.891 13.4934C99.6532 13.9757 100.275 14.8601 100.757 16.1463C100.837 16.1463 100.977 16.0458 101.178 15.8449C101.378 15.6037 101.719 15.3022 102.201 14.9405C102.722 14.5787 103.284 14.237 103.886 13.9155C105.33 13.1516 106.534 12.7698 107.496 12.7698C108.499 12.7698 109.342 12.9708 110.024 13.3728C110.746 13.7346 111.288 14.2973 111.649 15.061C112.331 16.4277 112.672 18.7792 112.672 22.1156V24.7084C112.672 25.5928 112.672 26.3364 112.672 26.9394C112.712 27.5423 112.792 27.9845 112.912 28.2658C113.033 28.5071 113.193 28.6879 113.394 28.8085C113.635 28.8889 113.895 28.9693 114.176 29.0497C114.578 29.1301 115.039 29.1702 115.56 29.1702C115.641 29.3311 115.681 29.5924 115.681 29.9542C115.681 30.3159 115.641 30.5572 115.56 30.6777C113.554 30.4768 111.809 30.3763 110.325 30.3763C108.881 30.3763 107.156 30.4768 105.149 30.6777C105.069 30.5572 105.029 30.3159 105.029 29.9542C105.029 29.5924 105.069 29.3311 105.149 29.1702C105.39 29.1702 105.771 29.1301 106.293 29.0497C106.815 28.9292 107.115 28.7281 107.196 28.4467C107.396 28.0448 107.496 27.5423 107.496 26.9394C107.537 26.3364 107.557 25.5928 107.557 24.7084V21.573C107.557 19.0405 107.075 17.3321 106.112 16.4479C105.791 16.1263 105.39 15.9654 104.909 15.9654C104.468 15.9654 104.026 16.0459 103.585 16.2067C103.144 16.3675 102.742 16.5484 102.381 16.7493C101.539 17.272 101.118 17.7342 101.118 18.1361V18.3773C101.238 19.5431 101.298 20.7892 101.298 22.1156V24.7084C101.298 26.7182 101.358 27.884 101.479 28.2056C101.599 28.487 101.76 28.6879 101.96 28.8085C102.201 28.8889 102.462 28.9693 102.742 29.0497C103.144 29.1301 103.585 29.1702 104.066 29.1702C104.147 29.3311 104.187 29.5924 104.187 29.9542C104.187 30.3159 104.147 30.5572 104.066 30.6777C102.06 30.4768 100.275 30.3763 98.7105 30.3763C97.3464 30.3763 95.6614 30.4768 93.6555 30.6777C93.5752 30.5572 93.5352 30.3159 93.5352 29.9542C93.5352 29.5924 93.5752 29.3311 93.6555 29.1702C93.9363 29.1702 94.3376 29.1301 94.859 29.0497C95.4208 28.9292 95.7616 28.688 95.8821 28.3262C96.0425 27.884 96.1227 26.6781 96.1227 24.7084V21.573C96.1227 17.8347 95.2403 15.9654 93.4749 15.9654C92.7128 15.9654 92.0507 16.1463 91.489 16.5081C90.4861 17.2316 89.9845 17.7946 89.9845 18.1965V24.7084C89.9845 26.7182 90.0448 27.884 90.1651 28.2056C90.2855 28.487 90.4459 28.6879 90.6466 28.8085C90.8472 28.8889 91.0677 28.9693 91.3085 29.0497C91.7096 29.1301 92.1309 29.1702 92.5722 29.1702C92.6525 29.3311 92.6925 29.5924 92.6925 29.9542C92.6925 30.3159 92.6525 30.5572 92.5722 30.6777C90.5663 30.4768 88.8413 30.3763 87.397 30.3763ZM121.911 13.433C121.831 13.6341 121.691 14.3777 121.49 15.664V24.7084C121.49 26.7182 121.55 27.884 121.671 28.2056C121.791 28.487 121.951 28.6879 122.152 28.8085C122.353 28.8889 122.573 28.9693 122.814 29.0497C123.215 29.1301 123.636 29.1702 124.078 29.1702C124.158 29.3311 124.198 29.5924 124.198 29.9542C124.198 30.3159 124.158 30.5572 124.078 30.6777C122.072 30.4768 120.347 30.3763 118.902 30.3763C117.257 30.3763 115.432 30.4768 113.426 30.6777C113.346 30.5572 113.306 30.3159 113.306 29.9542C113.306 29.5924 113.346 29.3311 113.426 29.1702C114.269 29.1702 114.891 29.0898 115.292 28.9292C115.693 28.7281 115.934 28.5674 116.014 28.4467C116.215 27.9644 116.315 26.7182 116.315 24.7084V19.523C116.315 19.2014 116.275 18.7191 116.194 18.0759C116.114 17.4328 116.034 17.0307 115.954 16.8699C115.673 16.3475 114.83 16.0862 113.426 16.0862C113.346 16.0459 113.306 15.8449 113.306 15.4831C113.346 15.0812 113.406 14.8801 113.486 14.8801C115.011 14.7596 116.495 14.4782 117.94 14.036C119.384 13.5537 120.487 13.1316 121.249 12.7698C121.37 12.8099 121.51 12.9106 121.671 13.0712C121.831 13.2321 121.911 13.3526 121.911 13.433ZM115.653 5.95643C115.653 5.15246 115.913 4.48908 116.435 3.96667C116.997 3.40375 117.679 3.12239 118.481 3.12239C119.284 3.12239 119.966 3.40375 120.527 3.96667C121.089 4.48908 121.37 5.15246 121.37 5.95643C121.37 6.7604 121.089 7.44365 120.527 8.00637C119.966 8.56928 119.284 8.85064 118.481 8.85064C117.679 8.85064 116.997 8.56928 116.435 8.00637C115.913 7.44365 115.653 6.7604 115.653 5.95643ZM127.616 19.2818C127.697 19.2818 127.957 19.2818 128.399 19.2818C128.88 19.2417 129.402 19.2014 129.963 19.1613C131.247 19.1209 132.17 19.0608 132.732 18.9804C133.093 18.9401 133.273 18.7191 133.273 18.317C133.273 17.8748 133.233 17.4125 133.153 16.9302C133.073 16.4479 132.932 16.0258 132.732 15.664C132.29 14.7796 131.709 14.3374 130.986 14.3374C130.304 14.3374 129.763 14.5386 129.362 14.9405C128.96 15.3022 128.619 15.7444 128.339 16.267C127.857 17.3121 127.616 18.317 127.616 19.2818ZM137.125 20.3671C134.717 20.568 131.548 20.7289 127.616 20.8494C127.616 23.3014 128.298 25.1103 129.662 26.276C130.706 27.1203 131.829 27.5423 133.033 27.5423C134.276 27.5423 135.239 27.3213 135.921 26.8791C136.603 26.4369 137.165 25.9947 137.606 25.5525C137.927 25.6329 138.088 25.8541 138.088 26.2159C138.088 26.5777 138.007 26.8791 137.847 27.1203C137.726 27.3213 137.466 27.6427 137.064 28.0849C136.663 28.487 136.162 28.8889 135.56 29.291C134.036 30.336 132.571 30.8586 131.167 30.8586C129.763 30.8586 128.559 30.6777 127.556 30.3159C126.553 29.9141 125.671 29.3511 124.908 28.6276C123.263 27.06 122.441 25.0301 122.441 22.5378C122.441 19.9652 123.324 17.7141 125.089 15.7845C126.975 13.7346 129.021 12.7095 131.227 12.7095C133.594 12.7095 135.4 13.4129 136.643 14.8199C137.686 15.9454 138.208 17.2519 138.208 18.7391C138.208 19.1813 138.108 19.5631 137.907 19.8848C137.706 20.2063 137.446 20.3671 137.125 20.3671ZM142.818 30.3763C141.173 30.3763 139.348 30.4768 137.342 30.6777C137.262 30.5572 137.221 30.3159 137.221 29.9542C137.221 29.5924 137.262 29.3311 137.342 29.1702C138.184 29.1702 138.806 29.0898 139.207 28.9292C139.609 28.7281 139.849 28.5674 139.929 28.4467C140.13 27.9644 140.23 26.7182 140.23 24.7084V19.523C140.23 19.2014 140.19 18.7191 140.11 18.0759C140.03 17.4328 139.95 17.0307 139.869 16.8699C139.589 16.3475 138.746 16.0862 137.342 16.0862C137.262 16.0459 137.221 15.8449 137.221 15.4831C137.262 15.0812 137.322 14.8801 137.402 14.8801C138.926 14.7596 140.411 14.4782 141.855 14.036C143.3 13.5537 144.403 13.1316 145.165 12.7698C145.285 12.7698 145.426 12.8703 145.586 13.0712C145.747 13.2321 145.807 13.3526 145.767 13.433C145.767 13.5134 145.747 13.6743 145.707 13.9155C145.707 14.1164 145.666 14.3777 145.586 14.6992C145.386 15.5032 145.345 15.9053 145.466 15.9053C145.506 15.9053 145.546 15.885 145.586 15.8449C145.626 15.8048 145.686 15.7645 145.767 15.7244C146.328 15.0812 147.01 14.5183 147.813 14.036C149.217 13.1919 150.421 12.7698 151.424 12.7698C152.467 12.7698 153.329 12.9708 154.011 13.3728C154.733 13.7346 155.295 14.2973 155.696 15.061C156.378 16.4277 156.719 18.7792 156.719 22.1156V24.7084C156.719 26.7182 156.779 27.884 156.9 28.2056C157.02 28.487 157.181 28.6879 157.381 28.8085C157.622 28.8889 157.883 28.9693 158.163 29.0497C158.645 29.1301 159.106 29.1702 159.548 29.1702C159.668 29.3311 159.708 29.5924 159.668 29.9542C159.668 30.3159 159.628 30.5572 159.548 30.6777C157.662 30.4768 155.857 30.3763 154.132 30.3763C152.808 30.3763 151.143 30.4768 149.137 30.6777C149.057 30.5572 149.016 30.3159 149.016 29.9542C149.016 29.5924 149.057 29.3311 149.137 29.1702C149.418 29.1702 149.819 29.1301 150.34 29.0497C150.862 28.9292 151.183 28.688 151.303 28.3262C151.464 27.884 151.544 26.6781 151.544 24.7084V21.573C151.544 17.8347 150.661 15.9654 148.896 15.9654C148.134 15.9654 147.472 16.1463 146.91 16.5081C145.907 17.2316 145.406 17.7946 145.406 18.1965V24.7084C145.406 26.7182 145.466 27.884 145.586 28.2056C145.707 28.487 145.867 28.6879 146.068 28.8085C146.268 28.8889 146.489 28.9693 146.73 29.0497C147.131 29.1301 147.552 29.1702 147.993 29.1702C148.074 29.3311 148.114 29.5924 148.114 29.9542C148.114 30.3159 148.074 30.5572 147.993 30.6777C145.988 30.4768 144.262 30.3763 142.818 30.3763ZM156.557 14.8199C156.878 14.3777 157.299 13.9356 157.821 13.4934H159.566V11.3831C160.328 10.6996 161.05 9.97608 161.732 9.21241C162.454 8.44856 163.116 7.76531 163.718 7.16229C163.959 7.00145 164.18 6.94129 164.38 6.9814C164.581 6.9814 164.701 7.04176 164.741 7.16229V13.4934H169.255C169.415 13.4934 169.495 13.6943 169.495 14.0964C169.495 14.4582 169.194 14.8801 168.593 15.3626H164.741V25.1907C164.741 27.2007 165.463 28.2056 166.908 28.2056C167.349 28.2056 167.79 28.0849 168.232 27.8439C168.673 27.5625 168.934 27.3816 169.014 27.3012C169.174 27.4618 169.255 27.6026 169.255 27.7232C169.255 28.0849 169.174 28.3462 169.014 28.5071C168.894 28.6679 168.693 28.8688 168.412 29.1101C168.171 29.3511 167.871 29.5924 167.509 29.8336C166.466 30.4768 165.584 30.7982 164.861 30.7982C164.18 30.7982 163.517 30.6978 162.876 30.4968C162.274 30.336 161.732 30.0145 161.251 29.532C160.128 28.5271 159.566 26.9996 159.566 24.9497V15.3626H156.737C156.617 15.2822 156.557 15.1013 156.557 14.8199ZM176.996 14.3374C175.19 14.3374 174.187 15.8249 173.987 18.7995C173.907 19.6034 173.866 20.4072 173.866 21.2112C173.866 22.0152 173.927 22.8995 174.047 23.8643C174.207 24.7888 174.468 25.6329 174.829 26.3968C175.591 28.2056 176.615 29.1101 177.898 29.1101C179.784 29.1101 180.847 27.6427 181.088 24.7084C181.128 23.9448 181.148 23.1608 181.148 22.3569C181.148 21.5529 181.068 20.6685 180.907 19.7039C180.747 18.7391 180.486 17.8748 180.125 17.1111C179.363 15.2621 178.32 14.3374 176.996 14.3374ZM177.477 12.7095C178.841 12.7095 180.085 12.9306 181.208 13.3728C182.372 13.815 183.375 14.4379 184.217 15.2419C185.942 16.9302 186.804 19.0405 186.804 21.573C186.804 24.0653 185.901 26.2359 184.097 28.0849C182.372 29.8938 180.185 30.7982 177.537 30.7982C174.769 30.7982 172.522 29.9341 170.797 28.2056C169.072 26.4772 168.21 24.3667 168.21 21.8746C168.21 19.4226 169.092 17.272 170.857 15.4228C172.623 13.6139 174.829 12.7095 177.477 12.7095Z" fill="#FFD300"/>
<mask id="mask0_10_30" style="mask-type:luminance" maskUnits="userSpaceOnUse" x="-11" y="-22" width="120" height="93">
<path d="M108.31 -22H-11V71H108.31V-22Z" fill="white"/>
</mask>
<g mask="url(#mask0_10_30)">
<mask id="mask1_10_30" style="mask-type:luminance" maskUnits="userSpaceOnUse" x="-11" y="-22" width="120" height="93">
<path d="M108.31 -22H-11V71H108.31V-22Z" fill="white"/>
</mask>
<g mask="url(#mask1_10_30)">
<path d="M67.8729 3.93697C63.2533 5.50185 63.0685 10.4035 63.0685 14.4784C63.0685 16.0964 63.5369 18.6707 62.1403 19.8488C60.5361 21.2021 56.3029 20.8934 55.4046 18.8644C54.7376 17.3585 55.3881 15.6662 54.9338 14.1369C54.6047 13.0299 53.3498 12.6847 52.4999 13.5195C51.5242 14.4776 51.858 16.453 51.858 17.6854C51.8576 21.1593 51.8345 24.6339 51.8584 28.1077C51.8673 29.3946 51.8806 31.7579 53.8082 31.5287C55.8753 31.2829 54.8961 27.0885 55.1202 25.7186C55.5355 23.1829 58.5971 23.0289 60.6642 23.3567C63.7359 23.8443 62.8915 27.0487 63.092 29.3083C63.2009 30.5373 63.9145 31.962 65.4131 31.4502C67.2551 30.8212 66.6717 27.5841 66.6717 26.1034V15.6811C66.6717 13.9033 66.3723 11.7969 66.8456 10.0689C67.4025 8.03349 69.3578 6.52563 71.4761 7.08226C72.6272 7.38465 74.1486 8.54647 75.2305 7.42004C76.2158 6.39469 75.2012 5.07833 74.2552 4.51286C72.5817 3.51247 69.7057 3.31605 67.8729 3.93697ZM40.2473 37.3275C39.8054 34.72 37.7575 35.4612 35.8434 34.4622C32.4951 32.7145 29.9354 30.1934 26.2344 29.0489C24.786 28.6012 21.9502 28.9439 21.0407 27.5794C20.4131 26.6378 20.6298 25.1695 20.6292 24.0991V16.8836C20.6264 15.5643 20.8354 13.2615 19.012 13.0618C17.0558 12.8475 17.0354 15.1497 17.0263 16.4827C17.0024 19.9562 17.02 23.4314 17.0259 26.9052C17.0283 28.2813 16.8452 30.0676 18.0002 31.0729C19.3478 32.2451 22.1476 31.7011 23.8321 32.0395C27.0617 32.6875 30.5673 34.7782 32.6403 37.3275C30.6589 37.3275 28.5922 37.494 26.6347 37.1411C20.868 36.1022 17.1333 32.0682 14.7477 26.9052C13.1796 23.5118 12.2007 19.9815 10.9329 16.4827C10.4576 15.1711 9.88086 13.2362 8.22767 13.0618C6.58962 12.8892 5.97106 14.8663 5.55759 16.0818C4.33378 19.6801 2.82419 23.2678 1.75717 26.9052C1.4273 28.0297 0.292734 30.8183 1.93757 31.4502C3.5564 32.0719 4.51851 29.9032 5.4989 29.0831C6.72972 28.0533 8.72151 27.8179 10.2135 28.4052C12.575 29.3352 13.6666 32.658 15.21 34.52C17.8552 37.7113 22.0505 40.191 26.2344 40.4984C28.3035 40.6503 30.5824 40.6897 32.6403 40.4187C34.0896 40.2278 35.5767 39.5163 37.0443 39.6234C38.5557 39.7331 39.9559 40.5558 41.4484 40.8047C43.8911 41.2123 47.0205 41.1879 49.4559 40.749C50.9416 40.4816 57.1473 38.8926 55.4426 36.3491C54.6771 35.2066 53.3123 35.5501 52.2586 35.9726C50.0684 36.8509 47.8792 38.0159 45.4522 37.9919C43.7065 37.9742 42.0149 37.3645 40.2473 37.3275ZM37.4449 13.0883C31.6045 14.4816 28.8531 21.7678 31.6626 26.9052C33.841 30.8885 38.3197 32.5057 42.6496 31.5035C48.3988 30.1726 51.4008 22.8183 48.5435 17.6854C46.3743 13.7881 41.7108 12.0708 37.4449 13.0883ZM99.5021 40.5345V37.3275C96.3268 37.3275 93.1531 37.1279 90.2936 35.557C86.3628 33.3979 83.8693 28.9335 82.2706 24.8948C81.0643 21.8486 80.1414 18.7224 78.913 15.6813C78.4599 14.5594 77.8237 12.8939 76.3166 13.0618C74.7882 13.2321 74.4153 15.3091 74.0101 16.4827C72.8066 19.9707 71.4626 23.408 70.2738 26.9052C69.9204 27.9453 68.74 29.9646 69.5028 31.0169C70.1129 31.8586 71.3921 31.6201 72.0949 31.0717C74.2128 29.4174 75.5127 27.1592 78.6769 28.4052C81.4111 29.4819 82.642 33.6765 84.7044 35.6881C89.0552 39.9311 93.7167 40.5345 99.5021 40.5345Z" fill="#5B5E85"/>
<path d="M38.2455 16.3636C30.5188 18.9778 34.6222 30.891 42.2477 28.0544C49.4387 25.3795 45.5107 13.9057 38.2455 16.3636ZM76.2807 20.0905C75.9752 21.0096 75.4956 21.9412 75.3186 22.8954C75.0523 24.3321 76.6249 26.3219 77.8541 24.603C78.769 23.3234 77.1047 21.0045 76.2807 20.0905ZM7.81743 20.4914C7.34299 21.5649 6.46459 23.1707 6.95088 24.3722C7.44283 25.5875 9.17226 25.1972 9.44738 24.0399C9.70877 22.9402 8.95189 21.5189 8.61818 20.4914H7.81743Z" fill="white"/>
</g>
</g>
<path d="M186.727 37.3784H99.4797V40.5243H186.804V40.1311V39.7378V37.3784H186.727Z" fill="#5B5E85" stroke="#5B5E85" stroke-width="0.5"/>
</g>
<defs>
<clipPath id="clip0_10_30">
<rect width="198" height="93" fill="white" transform="translate(-11 -22)"/>
</clipPath>
</defs>
</svg>
