<svg width="699" height="473" viewBox="0 0 699 473" fill="none" xmlns="http://www.w3.org/2000/svg">
<path d="M501.427 266.387C493.044 266.387 483.742 266.898 473.52 267.92C473.111 267.307 472.907 266.08 472.907 264.24C472.907 262.4 473.111 261.071 473.52 260.253C477.813 260.253 480.982 259.844 483.027 259.027C485.071 258.004 486.298 257.187 486.707 256.573C487.729 254.12 488.24 247.782 488.24 237.56V211.187C488.24 209.551 488.036 207.098 487.627 203.827C487.218 200.556 486.809 198.511 486.4 197.693C484.969 195.036 480.676 193.707 473.52 193.707C473.111 193.502 472.907 192.48 472.907 190.64C473.111 188.596 473.418 187.573 473.827 187.573C481.596 186.96 489.16 185.529 496.52 183.28C503.88 180.827 509.502 178.68 513.387 176.84C514 177.044 514.716 177.556 515.533 178.373C516.351 179.191 516.658 179.804 516.453 180.213C516.453 180.622 516.351 181.542 516.147 182.973C515.942 184.404 515.738 186.04 515.533 187.88C515.329 189.516 515.124 191.151 514.92 192.787C514.716 194.422 514.613 195.547 514.613 196.16C514.613 196.569 514.818 196.876 515.227 197.08C515.636 197.08 515.84 196.978 515.84 196.773C519.52 190.64 522.587 186.347 525.04 183.893C530.356 178.987 535.773 176.533 541.293 176.533C547.427 176.533 551.618 177.658 553.867 179.907C555.502 182.36 556.32 185.12 556.32 188.187C556.32 191.049 556.013 193.502 555.4 195.547C554.787 197.387 553.867 199.124 552.64 200.76C550.187 204.236 547.324 205.973 544.053 205.973C542.213 205.973 540.578 205.36 539.147 204.133C537.92 202.907 536.693 201.782 535.467 200.76C534.444 199.738 533.32 198.818 532.093 198C531.071 196.978 529.64 196.467 527.8 196.467C525.96 196.467 524.222 197.182 522.587 198.613C520.951 199.84 519.52 201.373 518.293 203.213C515.84 206.893 514.613 210.164 514.613 213.027V237.56C514.613 247.782 514.92 253.711 515.533 255.347C516.147 256.778 516.964 257.8 517.987 258.413C519.009 258.822 520.133 259.231 521.36 259.64C523.404 260.049 525.551 260.253 527.8 260.253C528.209 261.071 528.413 262.4 528.413 264.24C528.413 266.08 528.209 267.307 527.8 267.92C517.578 266.898 508.787 266.387 501.427 266.387ZM555.462 238.173C555.462 237.151 556.484 236.64 558.528 236.64C560.573 236.64 562.004 237.356 562.822 238.787C564.253 246.76 567.319 252.587 572.022 256.267C575.497 259.129 579.382 260.56 583.675 260.56C587.968 260.56 591.137 259.436 593.182 257.187C595.226 254.938 596.248 252.484 596.248 249.827C596.248 247.169 595.533 245.022 594.102 243.387C592.875 241.547 591.239 240.013 589.195 238.787C587.355 237.56 585.208 236.333 582.755 235.107C573.759 231.018 566.195 226.111 560.062 220.387C555.973 216.502 553.928 211.596 553.928 205.667C553.928 199.533 555.155 194.729 557.608 191.253C560.062 187.778 563.128 184.916 566.808 182.667C573.759 178.373 582.039 176.227 591.648 176.227C596.351 176.227 600.439 176.738 603.915 177.76C607.391 178.578 610.866 179.396 614.342 180.213C615.568 185.324 616.591 190.538 617.408 195.853C618.226 201.169 618.635 204.338 618.635 205.36C618.635 206.178 617.715 206.587 615.875 206.587C614.035 206.587 612.502 205.973 611.275 204.747C609.639 198.818 607.799 194.524 605.755 191.867C601.462 186.96 596.146 184.507 589.808 184.507C586.333 184.507 583.471 185.427 581.222 187.267C579.177 189.107 578.155 191.56 578.155 194.627C578.155 197.693 578.768 200.147 579.995 201.987C581.426 203.827 583.062 205.462 584.902 206.893C586.946 208.12 589.195 209.244 591.648 210.267C594.102 211.289 596.555 212.413 599.008 213.64C601.462 214.662 604.017 215.889 606.675 217.32C609.333 218.751 611.684 220.489 613.728 222.533C618.431 227.236 620.782 232.756 620.782 239.093C620.782 245.227 619.657 250.031 617.408 253.507C615.159 256.982 612.195 259.844 608.515 262.093C601.564 266.387 592.364 268.533 580.915 268.533C576.213 268.533 571.715 268.022 567.422 267C563.128 265.773 559.653 264.853 556.995 264.24C556.586 261.378 556.279 257.698 556.075 253.2C555.871 248.498 555.666 245.022 555.462 242.773C555.462 240.32 555.462 238.787 555.462 238.173ZM642.37 209.96C642.779 209.96 644.108 209.96 646.357 209.96C648.81 209.756 651.468 209.551 654.33 209.347C660.872 209.142 665.574 208.836 668.437 208.427C670.277 208.222 671.197 207.098 671.197 205.053C671.197 202.804 670.992 200.453 670.583 198C670.174 195.547 669.459 193.4 668.437 191.56C666.188 187.062 663.223 184.813 659.543 184.813C656.068 184.813 653.308 185.836 651.263 187.88C649.219 189.72 647.481 191.969 646.05 194.627C643.597 199.942 642.37 205.053 642.37 209.96ZM690.823 215.48C678.557 216.502 662.406 217.32 642.37 217.933C642.37 230.404 645.846 239.604 652.797 245.533C658.112 249.827 663.837 251.973 669.97 251.973C676.308 251.973 681.214 250.849 684.69 248.6C688.166 246.351 691.028 244.102 693.277 241.853C694.912 242.262 695.73 243.387 695.73 245.227C695.73 247.067 695.321 248.6 694.503 249.827C693.89 250.849 692.561 252.484 690.517 254.733C688.472 256.778 685.917 258.822 682.85 260.867C675.081 266.182 667.619 268.84 660.463 268.84C653.308 268.84 647.174 267.92 642.063 266.08C636.952 264.036 632.454 261.173 628.57 257.493C620.188 249.52 615.997 239.196 615.997 226.52C615.997 213.436 620.494 201.987 629.49 192.173C639.099 181.747 649.526 176.533 660.77 176.533C672.832 176.533 682.032 180.111 688.37 187.267C693.686 192.991 696.343 199.636 696.343 207.2C696.343 209.449 695.832 211.391 694.81 213.027C693.788 214.662 692.459 215.48 690.823 215.48Z" fill="#FFD300"/>
<g clip-path="url(#clip0_24_254)">
<mask id="mask0_24_254" style="mask-type:luminance" maskUnits="userSpaceOnUse" x="0" y="0" width="608" height="473">
<path d="M608 0H0V473H608V0Z" fill="white"/>
</mask>
<g mask="url(#mask0_24_254)">
<path d="M401.933 131.916C378.392 139.875 377.45 164.805 377.45 185.53C377.45 193.759 379.837 206.852 372.72 212.844C364.545 219.727 342.973 218.157 338.395 207.837C334.996 200.178 338.311 191.571 335.996 183.793C334.319 178.163 327.924 176.407 323.593 180.653C318.621 185.526 320.322 195.573 320.322 201.841C320.32 219.509 320.202 237.181 320.324 254.849C320.369 261.394 320.437 273.414 330.26 272.248C340.794 270.998 335.804 249.665 336.946 242.698C339.062 229.801 354.664 229.018 365.198 230.685C380.851 233.165 376.548 249.463 377.57 260.955C378.125 267.206 381.761 274.452 389.398 271.849C398.785 268.65 395.812 252.186 395.812 244.655V191.647C395.812 182.605 394.286 171.892 396.698 163.103C399.536 152.751 409.5 145.082 420.295 147.913C426.161 149.451 433.914 155.36 439.427 149.631C444.448 144.416 439.278 137.721 434.457 134.845C425.929 129.757 411.273 128.758 401.933 131.916ZM261.154 301.741C258.902 288.479 248.466 292.249 238.712 287.168C221.649 278.279 208.605 265.457 189.745 259.636C182.364 257.359 167.913 259.102 163.278 252.162C160.08 247.373 161.184 239.905 161.181 234.461V197.763C161.167 191.053 162.232 179.341 152.94 178.325C142.971 177.235 142.867 188.944 142.821 195.724C142.699 213.39 142.789 231.065 142.819 248.733C142.831 255.732 141.898 264.817 147.784 269.93C154.651 275.892 168.919 273.125 177.503 274.846C193.961 278.142 211.825 288.775 222.389 301.741C212.292 301.741 201.76 302.588 191.785 300.793C162.398 295.509 143.366 274.992 131.209 248.733C123.218 231.474 118.23 213.519 111.769 195.724C109.347 189.053 106.408 179.212 97.9834 178.325C89.636 177.447 86.4838 187.503 84.3768 193.685C78.1403 211.986 70.4475 230.233 65.01 248.733C63.329 254.452 57.5473 268.635 65.9293 271.849C74.1788 275.011 79.0817 263.981 84.0777 259.81C90.3499 254.572 100.5 253.375 108.103 256.362C120.137 261.092 125.7 277.992 133.565 287.462C147.045 303.693 168.424 316.305 189.745 317.868C200.289 318.641 211.902 318.841 222.389 317.463C229.775 316.492 237.353 312.873 244.832 313.418C252.534 313.976 259.669 318.16 267.275 319.426C279.723 321.499 295.67 321.375 308.081 319.143C315.652 317.783 347.276 309.701 338.589 296.765C334.688 290.954 327.733 292.701 322.363 294.85C311.202 299.317 300.046 305.242 287.678 305.12C278.782 305.03 270.162 301.929 261.154 301.741ZM246.873 178.46C217.111 185.546 203.09 222.604 217.407 248.733C228.508 268.992 251.331 277.217 273.396 272.12C302.694 265.351 317.992 227.947 303.431 201.841C292.377 182.019 268.612 173.285 246.873 178.46ZM563.114 318.052V301.741C546.933 301.741 530.76 300.726 516.188 292.736C496.157 281.755 483.45 259.049 475.303 238.508C469.156 223.015 464.453 207.115 458.193 191.648C455.884 185.942 452.642 177.471 444.962 178.325C437.173 179.191 435.273 189.755 433.208 195.724C427.075 213.464 420.226 230.946 414.168 248.733C412.367 254.023 406.352 264.293 410.239 269.645C413.348 273.926 419.867 272.713 423.448 269.924C434.241 261.51 440.865 250.025 456.99 256.362C470.923 261.838 477.196 283.172 487.706 293.403C509.877 314.983 533.632 318.052 563.114 318.052Z" fill="#272A57"/>
<path d="M250.953 195.118C211.578 208.414 232.489 269.005 271.348 254.578C307.993 240.973 287.976 182.617 250.953 195.118ZM444.779 214.073C443.222 218.748 440.778 223.486 439.876 228.339C438.519 235.646 446.533 245.766 452.797 237.024C457.459 230.516 448.978 218.722 444.779 214.073ZM95.8928 216.112C93.4751 221.572 88.9988 229.739 91.4769 235.85C93.9839 242.031 102.797 240.046 104.199 234.16C105.531 228.567 101.674 221.338 99.9734 216.112H95.8928Z" fill="white"/>
</g>
</g>
<path d="M697.881 302H563V318H698V316V314V302H697.881Z" fill="#272A57" stroke="#272A57" stroke-width="0.5"/>
<defs>
<clipPath id="clip0_24_254">
<rect width="608" height="473" fill="white"/>
</clipPath>
</defs>
</svg>
