<svg width="613" height="477" viewBox="0 0 613 477" fill="none" xmlns="http://www.w3.org/2000/svg">
<path d="M266.295 261.22C256.22 286.373 238.912 307.973 216.56 323.29C194.209 338.606 167.817 346.951 140.723 347.268C113.629 347.585 87.0488 339.861 64.3446 325.072C41.6403 310.283 23.8314 289.094 13.1698 264.184C2.5082 239.273 -0.527182 211.761 4.44749 185.125C9.42215 158.49 22.1834 133.928 41.1176 114.545C60.0518 95.162 84.3084 81.8291 110.82 76.2321C137.332 70.6352 164.908 73.0255 190.061 83.101L181.517 104.431C160.582 96.046 137.631 94.0565 115.566 98.7147C93.5014 103.373 73.3132 114.47 57.5547 130.601C41.7963 146.733 31.1754 167.176 27.0351 189.344C22.8948 211.512 25.421 234.41 34.2944 255.142C43.1678 275.875 57.9898 293.51 76.886 305.818C95.7822 318.127 117.904 324.556 140.454 324.292C163.004 324.028 184.969 317.083 203.572 304.335C222.174 291.588 236.579 273.61 244.965 252.676L266.295 261.22Z" fill="#272A57"/>
<circle cx="140.005" cy="210.228" r="105.5" transform="rotate(-175.367 140.005 210.228)" fill="#272A57"/>
<circle cx="375.5" cy="239.159" r="237" fill="#BBD1EA"/>
<circle cx="376" cy="239.159" r="201" fill="#BBD1EA"/>
<path d="M380.011 41.7054C420.983 42.7256 460.598 56.5965 493.257 81.3575C525.916 106.118 549.968 140.517 562.012 179.692C574.057 218.867 573.485 260.836 560.377 299.668C547.27 338.5 522.29 372.231 488.969 396.093C455.647 419.954 415.669 432.741 374.685 432.644C333.7 432.548 293.783 419.573 260.574 395.555C227.365 371.536 202.544 337.688 189.62 298.795C176.696 259.902 176.321 217.93 188.55 178.813L193.207 180.268C181.283 218.41 181.648 259.334 194.25 297.256C206.852 335.179 231.053 368.182 263.433 391.601C295.813 415.021 334.734 427.671 374.696 427.765C414.658 427.859 453.638 415.392 486.128 392.126C518.618 368.859 542.975 335.97 555.755 298.108C568.535 260.245 569.093 219.323 557.349 181.126C545.605 142.929 522.154 109.388 490.31 85.2453C458.466 61.1023 419.839 47.5776 379.89 46.5828L380.011 41.7054Z" fill="white"/>
<path d="M217.824 209.993C102.211 214.59 4.76222 124.595 0.165063 8.98235C-4.43209 -106.63 85.5635 -204.079 201.176 -208.676C316.788 -213.273 414.237 -123.278 418.834 -7.66543C423.431 107.947 333.436 205.396 217.824 209.993Z" fill="#5B5E85"/>
</svg>
