<svg width="31" height="31" viewBox="0 0 31 31" fill="none" xmlns="http://www.w3.org/2000/svg">
<path d="M25.9257 12.2588V4.06258H23.4257V6.56258H8.42575V4.06258H5.92575V12.2588C4.43825 13.1251 3.42575 14.7188 3.42575 16.5626V21.5626C3.42575 21.8941 3.55744 22.212 3.79187 22.4465C4.02629 22.6809 4.34423 22.8126 4.67575 22.8126H5.92575V27.8126H8.42575V22.8126H23.4257V27.8126H25.9257V22.8126H27.1757C27.5073 22.8126 27.8252 22.6809 28.0596 22.4465C28.2941 22.212 28.4257 21.8941 28.4257 21.5626V16.5626C28.4257 14.7188 27.412 13.1251 25.9257 12.2588ZM23.4257 9.06258V11.5626H17.1757V9.06258H23.4257ZM8.42575 9.06258H14.6757V11.5626H8.42575V9.06258ZM25.9257 20.3126H5.92575V16.5626C5.92575 15.1838 7.047 14.0626 8.42575 14.0626H23.4257C24.8045 14.0626 25.9257 15.1838 25.9257 16.5626V20.3126Z" fill="white"/>
</svg>
