<!-- icon666.com - MILLIONS vector ICONS FREE --><svg id="Capa_1" enable-background="new 0 0 512.002 512.002" viewBox="0 0 512.002 512.002" xmlns="http://www.w3.org/2000/svg"><g><path d="m505.848 478.114c6.69-4.886 8.152-14.27 3.267-20.96-.237-.326-168.434-230.636-238.113-326.047 0-9.562 0-76.585 0-85.106 0-8.284-6.716-15-15-15s-15 6.716-15 15v23.787l-4.394-4.394c-5.857-5.857-15.355-5.857-21.213 0-5.858 5.858-5.858 15.355 0 21.213l25.606 25.606v18.893l-238.113 326.048c-4.886 6.69-3.424 16.074 3.267 20.96 6.692 4.887 16.076 3.422 20.96-3.267l19.127-26.19c21.509 20.5 50.461 32.343 80.528 32.343h267.172c27.886 0 54.275-9.732 75.295-27.583l15.65 21.43c4.896 6.702 14.282 8.144 20.961 3.267zm-264.847-27.114h-84.27l84.27-115.858zm30 0v-115.85l84.244 115.85zm122.941 0h-1.604l-124.205-170.804c-2.697-3.716-7.23-6.178-12.132-6.178-4.775 0-9.354 2.36-12.131 6.177l-124.026 170.516c-21.145-1.722-41.089-11.256-55.712-26.553l191.869-262.725 195.473 267.659c-15.863 14.157-36.099 21.908-57.532 21.908z"></path></g></svg>