<svg width="14" height="14" viewBox="0 0 14 14" fill="none" xmlns="http://www.w3.org/2000/svg">
<path d="M7.00001 9.33333C8.28867 9.33333 9.33334 8.28867 9.33334 7C9.33334 5.71134 8.28867 4.66667 7.00001 4.66667C5.71134 4.66667 4.66667 5.71134 4.66667 7C4.66667 8.28867 5.71134 9.33333 7.00001 9.33333Z" fill="#272A57"/>
<path d="M7.58334 2.37358V1.16667H6.41667V2.37358C5.39018 2.50465 4.43624 2.97277 3.7045 3.7045C2.97277 4.43623 2.50465 5.39018 2.37359 6.41667H1.16667V7.58334H2.37359C2.50446 8.6099 2.97252 9.56395 3.70429 10.2957C4.43605 11.0275 5.3901 11.4955 6.41667 11.6264V12.8333H7.58334V11.6264C8.60994 11.4956 9.56405 11.0276 10.2958 10.2958C11.0276 9.56404 11.4956 8.60994 11.6264 7.58334H12.8333V6.41667H11.6264C11.4955 5.3901 11.0275 4.43605 10.2957 3.70428C9.56396 2.97251 8.60991 2.50446 7.58334 2.37358ZM7.00001 10.5C5.06976 10.5 3.50001 8.93025 3.50001 7C3.50001 5.06975 5.06976 3.5 7.00001 3.5C8.93026 3.5 10.5 5.06975 10.5 7C10.5 8.93025 8.93026 10.5 7.00001 10.5Z" fill="#272A57"/>
</svg>
