<svg width="298" height="232" viewBox="0 0 298 232" fill="none" xmlns="http://www.w3.org/2000/svg">
<g clip-path="url(#clip0_24_236)">
<path d="M197 64.7029C185.462 68.6069 185 80.8348 185 91C185 95.0359 186.17 101.458 182.682 104.397C178.675 107.773 168.102 107.003 165.858 101.941C164.192 98.1847 165.817 93.963 164.682 90.1481C163.86 87.3867 160.726 86.5254 158.603 88.608C156.166 90.998 157 95.9261 157 99C156.999 107.666 156.941 116.334 157.001 125C157.023 128.21 157.056 134.106 161.871 133.534C167.034 132.921 164.588 122.457 165.148 119.04C166.185 112.714 173.832 112.33 178.995 113.148C186.667 114.364 184.558 122.358 185.059 127.995C185.331 131.061 187.113 134.615 190.856 133.338C195.457 131.769 194 123.694 194 120V94C194 89.5651 193.252 84.3105 194.434 80C195.825 74.9221 200.709 71.1609 206 72.5494C208.875 73.3037 212.675 76.2017 215.377 73.392C217.838 70.8339 215.304 67.5501 212.941 66.1397C208.761 63.6442 201.578 63.1539 197 64.7029ZM128 148C126.896 141.495 121.781 143.344 117 140.852C108.637 136.492 102.244 130.203 93 127.348C89.3822 126.231 82.2995 127.086 80.0278 123.682C78.4604 121.333 79.0012 117.67 79 115V97C78.9932 93.7091 79.5149 87.9644 74.9606 87.466C70.0745 86.9314 70.0237 92.6742 70.0008 96C69.9411 104.665 69.9855 113.334 70 122C70.0057 125.433 69.5484 129.889 72.4336 132.397C75.7993 135.321 82.7923 133.964 87 134.808C95.0663 136.425 103.822 141.64 109 148C104.051 148 98.889 148.415 94 147.535C79.5963 144.943 70.2681 134.88 64.3094 122C60.3932 113.535 57.9484 104.728 54.7816 96C53.5945 92.728 52.1541 87.9008 48.0247 87.466C43.9334 87.0353 42.3884 91.9675 41.3557 95C38.299 103.976 34.5285 112.926 31.8634 122C31.0395 124.805 28.2057 131.762 32.314 133.338C36.3573 134.889 38.7604 129.479 41.2091 127.433C44.2833 124.864 49.2581 124.277 52.9846 125.742C58.883 128.062 61.6095 136.351 65.4645 140.996C72.0715 148.957 82.5497 155.143 93 155.91C98.1679 156.289 103.86 156.387 109 155.711C112.62 155.235 116.334 153.46 120 153.727C123.775 154.001 127.272 156.053 131 156.674C137.101 157.691 144.917 157.63 151 156.535C154.711 155.868 170.211 151.904 165.953 145.559C164.041 142.709 160.632 143.566 158 144.62C152.53 146.811 147.062 149.717 141 149.657C136.64 149.613 132.415 148.092 128 148ZM121 87.5324C106.413 91.0076 99.5407 109.184 106.558 122C111.999 131.937 123.185 135.971 134 133.471C148.36 130.151 155.858 111.805 148.721 99C143.303 89.2777 131.655 84.994 121 87.5324ZM276 156V148C268.069 148 260.142 147.502 253 143.583C243.182 138.197 236.954 127.06 232.961 116.985C229.948 109.386 227.643 101.587 224.575 94.0008C223.443 91.202 221.854 87.0471 218.09 87.466C214.272 87.8909 213.341 93.072 212.329 96C209.323 104.701 205.966 113.276 202.997 122C202.114 124.595 199.166 129.632 201.071 132.257C202.595 134.357 205.79 133.762 207.545 132.394C212.835 128.267 216.082 122.634 223.985 125.742C230.814 128.428 233.889 138.892 239.04 143.91C249.907 154.495 261.55 156 276 156Z" fill="#272A57"/>
<path d="M123 95.7028C103.701 102.224 113.95 131.943 132.996 124.867C150.957 118.194 141.146 89.5712 123 95.7028ZM218 105C217.237 107.293 216.039 109.617 215.597 111.997C214.932 115.581 218.86 120.545 221.93 116.257C224.215 113.065 220.058 107.28 218 105ZM47 106C45.815 108.678 43.621 112.684 44.8356 115.681C46.0644 118.713 50.384 117.739 51.071 114.852C51.7239 112.109 49.8334 108.563 49 106H47Z" fill="white"/>
</g>
<defs>
<clipPath id="clip0_24_236">
<rect width="298" height="232" fill="white"/>
</clipPath>
</defs>
</svg>
