<svg width="290" height="226" viewBox="0 0 290 226" fill="none" xmlns="http://www.w3.org/2000/svg">
<path d="M187.377 67.8614C176.149 71.6645 175.7 83.5762 175.7 93.4788C175.7 97.4096 176.838 103.666 173.444 106.529C169.544 109.817 159.255 109.067 157.072 104.137C155.45 100.477 157.031 96.3647 155.927 92.6483C155.127 89.9585 152.077 89.1197 150.011 91.1483C147.639 93.4765 148.451 98.2769 148.451 101.272C148.45 109.713 148.394 118.157 148.452 126.599C148.473 129.726 148.506 135.47 153.191 134.913C158.216 134.315 155.835 124.122 156.381 120.793C157.389 114.631 164.831 114.257 169.855 115.054C177.322 116.238 175.27 124.026 175.757 129.517C176.022 132.503 177.756 135.965 181.398 134.722C185.876 133.193 184.458 125.327 184.458 121.729V96.4007C184.458 92.0806 183.73 86.9623 184.88 82.7625C186.234 77.8166 190.987 74.1524 196.136 75.505C198.933 76.24 202.632 79.063 205.261 76.3258C207.656 73.8339 205.19 70.635 202.89 69.2611C198.822 66.8302 191.833 66.3525 187.377 67.8614ZM120.229 149.004C119.155 142.668 114.178 144.469 109.525 142.041C101.386 137.794 95.1655 131.667 86.1693 128.886C82.6488 127.799 75.756 128.631 73.5453 125.315C72.02 123.027 72.5463 119.459 72.5452 116.858V99.3234C72.5385 96.1172 73.0462 90.5216 68.6142 90.0359C63.8592 89.515 63.8098 95.109 63.7875 98.3489C63.7294 106.79 63.7726 115.235 63.7868 123.677C63.7923 127.021 63.3473 131.362 66.155 133.805C69.4304 136.653 76.2357 135.332 80.3303 136.154C88.1802 137.729 96.7004 142.809 101.74 149.004C96.9238 149.004 91.9005 149.409 87.1426 148.552C73.1254 146.026 64.0476 136.223 58.2489 123.677C54.4378 115.431 52.0587 106.851 48.9769 98.3489C47.8216 95.1619 46.4199 90.4596 42.4014 90.0359C38.4199 89.6161 36.9164 94.4211 35.9114 97.3752C32.9367 106.119 29.2675 114.838 26.674 123.677C25.8721 126.409 23.1145 133.187 27.1124 134.722C31.0472 136.233 33.3858 130.963 35.7687 128.969C38.7604 126.466 43.6017 125.895 47.2282 127.322C52.9682 129.582 55.6215 137.657 59.373 142.181C65.8026 149.937 75.9995 155.963 86.1693 156.71C91.1988 157.079 96.7379 157.175 101.74 156.516C105.263 156.052 108.877 154.323 112.445 154.583C116.118 154.85 119.521 156.849 123.149 157.454C129.086 158.445 136.693 158.385 142.612 157.319C146.224 156.669 161.308 152.807 157.163 146.626C155.303 143.85 151.986 144.685 149.425 145.712C144.101 147.846 138.78 150.677 132.881 150.618C128.638 150.576 124.526 149.094 120.229 149.004ZM113.418 90.1003C99.2224 93.4857 92.534 111.192 99.3632 123.677C104.658 133.357 115.544 137.287 126.068 134.851C140.043 131.617 147.339 113.745 140.395 101.272C135.122 91.801 123.787 87.6281 113.418 90.1003ZM264.257 156.797V149.004C256.539 149.004 248.824 148.519 241.874 144.702C232.319 139.455 226.258 128.606 222.373 118.792C219.441 111.389 217.198 103.791 214.212 96.4015C213.111 93.6749 211.564 89.6276 207.901 90.0359C204.186 90.4496 203.28 95.4967 202.295 98.3489C199.37 106.825 196.102 115.179 193.213 123.677C192.354 126.204 189.485 131.111 191.339 133.668C192.822 135.714 195.932 135.135 197.64 133.802C202.788 129.781 205.947 124.294 213.638 127.322C220.283 129.938 223.276 140.132 228.288 145.02C238.864 155.332 250.195 156.797 264.257 156.797Z" fill="white"/>
<path d="M115.614 98.4763C96.834 104.829 106.807 133.78 125.342 126.886C142.821 120.386 133.274 92.5037 115.614 98.4763ZM208.064 107.533C207.322 109.767 206.156 112.031 205.726 114.349C205.079 117.841 208.901 122.677 211.889 118.499C214.113 115.389 210.067 109.754 208.064 107.533ZM41.6549 108.508C40.5017 111.116 38.3665 115.019 39.5486 117.938C40.7444 120.892 44.948 119.943 45.6165 117.131C46.2519 114.459 44.4122 111.004 43.6011 108.508H41.6549Z" fill="#272A57"/>
</svg>
